<?xml version="1.0" encoding="utf-8"?>
<!-- Generator: Adobe Illustrator 27.5.0, SVG Export Plug-In . SVG Version: 6.00 Build 0)  -->
<svg version="1.1" xmlns="http://www.w3.org/2000/svg" xmlns:xlink="http://www.w3.org/1999/xlink" x="0px" y="0px"
	 viewBox="0 0 500 500" style="enable-background:new 0 0 500 500;" xml:space="preserve">
<g id="Background_Simple">
	<g>
		<path style="fill:#92E3A9;" d="M455.203,192.698c-2.72-10.105-6.003-19.933-9.755-29.329
			c-26.699-66.862-83.939-117.3-155.245-131.325c-70.88-13.941-193.516,5.182-211.415,91.468
			c-3.705,17.859-0.245,36.335-0.34,54.575c-0.182,34.71-15.032,60.178-31.192,89.42c-12.169,22.021-22.531,47.307-16.756,71.796
			c3.747,15.888,13.987,29.561,25.869,40.755c40.235,37.902,94.131,45.66,146.999,36.988c25.05-4.109,49.456-15.055,74.221-18.154
			c31.72-3.97,63.75,6.219,95.333-0.7c30.32-6.642,55.968-28.719,70.932-55.913C468.754,297.028,468.332,241.479,455.203,192.698z"
			/>
		<path style="opacity:0.7;fill:#FFFFFF;" d="M455.203,192.698c-2.72-10.105-6.003-19.933-9.755-29.329
			c-26.699-66.862-83.939-117.3-155.245-131.325c-70.88-13.941-193.516,5.182-211.415,91.468
			c-3.705,17.859-0.245,36.335-0.34,54.575c-0.182,34.71-15.032,60.178-31.192,89.42c-12.169,22.021-22.531,47.307-16.756,71.796
			c3.747,15.888,13.987,29.561,25.869,40.755c40.235,37.902,94.131,45.66,146.999,36.988c25.05-4.109,49.456-15.055,74.221-18.154
			c31.72-3.97,63.75,6.219,95.333-0.7c30.32-6.642,55.968-28.719,70.932-55.913C468.754,297.028,468.332,241.479,455.203,192.698z"
			/>
	</g>
</g>
<g id="Window">
	<g>
		<g style="opacity:0.2;">
			
				<rect x="196.25" y="42" style="fill:none;stroke:#263238;stroke-linecap:round;stroke-miterlimit:10;" width="129.978" height="365.724"/>
			<polyline style="fill:none;stroke:#263238;stroke-linecap:round;stroke-miterlimit:10;" points="196.944,53.119 325.969,53.119 
				322.938,43.065 			"/>
			<polyline style="fill:none;stroke:#263238;stroke-linecap:round;stroke-miterlimit:10;" points="196.944,65.295 325.969,65.295 
				322.938,55.241 			"/>
			<polyline style="fill:none;stroke:#263238;stroke-linecap:round;stroke-miterlimit:10;" points="196.944,77.471 325.969,77.471 
				322.938,67.417 			"/>
			<polyline style="fill:none;stroke:#263238;stroke-linecap:round;stroke-miterlimit:10;" points="196.944,89.648 325.969,89.648 
				322.938,79.593 			"/>
			<polyline style="fill:none;stroke:#263238;stroke-linecap:round;stroke-miterlimit:10;" points="196.944,101.824 
				325.969,101.824 322.938,91.77 			"/>
			<polyline style="fill:none;stroke:#263238;stroke-linecap:round;stroke-miterlimit:10;" points="196.944,114 325.969,114 
				322.938,103.946 			"/>
			<polyline style="fill:none;stroke:#263238;stroke-linecap:round;stroke-miterlimit:10;" points="196.944,126.176 
				325.969,126.176 322.938,116.122 			"/>
			<polyline style="fill:none;stroke:#263238;stroke-linecap:round;stroke-miterlimit:10;" points="196.944,138.352 
				325.969,138.352 322.938,128.298 			"/>
			<polyline style="fill:none;stroke:#263238;stroke-linecap:round;stroke-miterlimit:10;" points="196.944,150.528 
				325.969,150.528 322.938,140.474 			"/>
			<polyline style="fill:none;stroke:#263238;stroke-linecap:round;stroke-miterlimit:10;" points="196.944,162.704 
				325.969,162.704 322.938,152.65 			"/>
			<polyline style="fill:none;stroke:#263238;stroke-linecap:round;stroke-miterlimit:10;" points="196.944,174.88 325.969,174.88 
				322.938,164.826 			"/>
			<polyline style="fill:none;stroke:#263238;stroke-linecap:round;stroke-miterlimit:10;" points="196.944,187.056 
				325.969,187.056 322.938,177.002 			"/>
			<polyline style="fill:none;stroke:#263238;stroke-linecap:round;stroke-miterlimit:10;" points="196.944,199.232 
				325.969,199.232 322.938,189.178 			"/>
			<polyline style="fill:none;stroke:#263238;stroke-linecap:round;stroke-miterlimit:10;" points="196.944,211.408 
				325.969,211.408 322.938,201.354 			"/>
			<polyline style="fill:none;stroke:#263238;stroke-linecap:round;stroke-miterlimit:10;" points="196.944,223.584 
				325.969,223.584 322.938,213.53 			"/>
			<polyline style="fill:none;stroke:#263238;stroke-linecap:round;stroke-miterlimit:10;" points="196.944,235.76 325.969,235.76 
				322.938,225.706 			"/>
			<polyline style="fill:none;stroke:#263238;stroke-linecap:round;stroke-miterlimit:10;" points="196.944,247.937 
				325.969,247.937 322.938,237.882 			"/>
			<polyline style="fill:none;stroke:#263238;stroke-linecap:round;stroke-miterlimit:10;" points="196.944,260.113 
				325.969,260.113 322.938,250.059 			"/>
			<polyline style="fill:none;stroke:#263238;stroke-linecap:round;stroke-miterlimit:10;" points="196.944,272.289 
				325.969,272.289 322.938,262.235 			"/>
			<polyline style="fill:none;stroke:#263238;stroke-linecap:round;stroke-miterlimit:10;" points="196.944,284.465 
				325.969,284.465 322.938,274.411 			"/>
			<polyline style="fill:none;stroke:#263238;stroke-linecap:round;stroke-miterlimit:10;" points="196.944,296.641 
				325.969,296.641 322.938,286.587 			"/>
			<polyline style="fill:none;stroke:#263238;stroke-linecap:round;stroke-miterlimit:10;" points="196.944,308.817 
				325.969,308.817 322.938,298.763 			"/>
			<polyline style="fill:none;stroke:#263238;stroke-linecap:round;stroke-miterlimit:10;" points="196.944,320.993 
				325.969,320.993 322.938,310.939 			"/>
			<polyline style="fill:none;stroke:#263238;stroke-linecap:round;stroke-miterlimit:10;" points="196.944,333.169 
				325.969,333.169 322.938,323.115 			"/>
			<polyline style="fill:none;stroke:#263238;stroke-linecap:round;stroke-miterlimit:10;" points="196.944,345.345 
				325.969,345.345 322.938,335.291 			"/>
			<polyline style="fill:none;stroke:#263238;stroke-linecap:round;stroke-miterlimit:10;" points="196.944,357.521 
				325.969,357.521 322.938,347.467 			"/>
			<polyline style="fill:none;stroke:#263238;stroke-linecap:round;stroke-miterlimit:10;" points="196.944,369.697 
				325.969,369.697 322.938,359.643 			"/>
			<polyline style="fill:none;stroke:#263238;stroke-linecap:round;stroke-miterlimit:10;" points="196.944,381.873 
				325.969,381.873 322.938,371.819 			"/>
			<polyline style="fill:none;stroke:#263238;stroke-linecap:round;stroke-miterlimit:10;" points="196.944,394.049 
				325.969,394.049 322.938,383.995 			"/>
		</g>
		<g style="opacity:0.2;">
			
				<rect x="336.022" y="42" style="fill:none;stroke:#263238;stroke-linecap:round;stroke-miterlimit:10;" width="129.978" height="365.724"/>
			<polyline style="fill:none;stroke:#263238;stroke-linecap:round;stroke-miterlimit:10;" points="336.716,53.119 465.741,53.119 
				462.71,43.065 			"/>
			<polyline style="fill:none;stroke:#263238;stroke-linecap:round;stroke-miterlimit:10;" points="336.716,65.295 465.741,65.295 
				462.71,55.241 			"/>
			<polyline style="fill:none;stroke:#263238;stroke-linecap:round;stroke-miterlimit:10;" points="336.716,77.471 465.741,77.471 
				462.71,67.417 			"/>
			<polyline style="fill:none;stroke:#263238;stroke-linecap:round;stroke-miterlimit:10;" points="336.716,89.648 465.741,89.648 
				462.71,79.593 			"/>
			<polyline style="fill:none;stroke:#263238;stroke-linecap:round;stroke-miterlimit:10;" points="336.716,101.824 
				465.741,101.824 462.71,91.77 			"/>
			<polyline style="fill:none;stroke:#263238;stroke-linecap:round;stroke-miterlimit:10;" points="336.716,114 465.741,114 
				462.71,103.946 			"/>
			<polyline style="fill:none;stroke:#263238;stroke-linecap:round;stroke-miterlimit:10;" points="336.716,126.176 
				465.741,126.176 462.71,116.122 			"/>
			<polyline style="fill:none;stroke:#263238;stroke-linecap:round;stroke-miterlimit:10;" points="336.716,138.352 
				465.741,138.352 462.71,128.298 			"/>
			<polyline style="fill:none;stroke:#263238;stroke-linecap:round;stroke-miterlimit:10;" points="336.716,150.528 
				465.741,150.528 462.71,140.474 			"/>
			<polyline style="fill:none;stroke:#263238;stroke-linecap:round;stroke-miterlimit:10;" points="336.716,162.704 
				465.741,162.704 462.71,152.65 			"/>
			<polyline style="fill:none;stroke:#263238;stroke-linecap:round;stroke-miterlimit:10;" points="336.716,174.88 465.741,174.88 
				462.71,164.826 			"/>
			<polyline style="fill:none;stroke:#263238;stroke-linecap:round;stroke-miterlimit:10;" points="336.716,187.056 
				465.741,187.056 462.71,177.002 			"/>
			<polyline style="fill:none;stroke:#263238;stroke-linecap:round;stroke-miterlimit:10;" points="336.716,199.232 
				465.741,199.232 462.71,189.178 			"/>
			<polyline style="fill:none;stroke:#263238;stroke-linecap:round;stroke-miterlimit:10;" points="336.716,211.408 
				465.741,211.408 462.71,201.354 			"/>
			<polyline style="fill:none;stroke:#263238;stroke-linecap:round;stroke-miterlimit:10;" points="336.716,223.584 
				465.741,223.584 462.71,213.53 			"/>
			<polyline style="fill:none;stroke:#263238;stroke-linecap:round;stroke-miterlimit:10;" points="336.716,235.76 465.741,235.76 
				462.71,225.706 			"/>
			<polyline style="fill:none;stroke:#263238;stroke-linecap:round;stroke-miterlimit:10;" points="336.716,247.937 
				465.741,247.937 462.71,237.882 			"/>
			<polyline style="fill:none;stroke:#263238;stroke-linecap:round;stroke-miterlimit:10;" points="336.716,260.113 
				465.741,260.113 462.71,250.059 			"/>
			<polyline style="fill:none;stroke:#263238;stroke-linecap:round;stroke-miterlimit:10;" points="336.716,272.289 
				465.741,272.289 462.71,262.235 			"/>
			<polyline style="fill:none;stroke:#263238;stroke-linecap:round;stroke-miterlimit:10;" points="336.716,284.465 
				465.741,284.465 462.71,274.411 			"/>
			<polyline style="fill:none;stroke:#263238;stroke-linecap:round;stroke-miterlimit:10;" points="336.716,296.641 
				465.741,296.641 462.71,286.587 			"/>
			<polyline style="fill:none;stroke:#263238;stroke-linecap:round;stroke-miterlimit:10;" points="336.716,308.817 
				465.741,308.817 462.71,298.763 			"/>
			<polyline style="fill:none;stroke:#263238;stroke-linecap:round;stroke-miterlimit:10;" points="336.716,320.993 
				465.741,320.993 462.71,310.939 			"/>
			<polyline style="fill:none;stroke:#263238;stroke-linecap:round;stroke-miterlimit:10;" points="336.716,333.169 
				465.741,333.169 462.71,323.115 			"/>
			<polyline style="fill:none;stroke:#263238;stroke-linecap:round;stroke-miterlimit:10;" points="336.716,345.345 
				465.741,345.345 462.71,335.291 			"/>
			<polyline style="fill:none;stroke:#263238;stroke-linecap:round;stroke-miterlimit:10;" points="336.716,357.521 
				465.741,357.521 462.71,347.467 			"/>
			<polyline style="fill:none;stroke:#263238;stroke-linecap:round;stroke-miterlimit:10;" points="336.716,369.697 
				465.741,369.697 462.71,359.643 			"/>
			<polyline style="fill:none;stroke:#263238;stroke-linecap:round;stroke-miterlimit:10;" points="336.716,381.873 
				465.741,381.873 462.71,371.819 			"/>
			<polyline style="fill:none;stroke:#263238;stroke-linecap:round;stroke-miterlimit:10;" points="336.716,394.049 
				465.741,394.049 462.71,383.995 			"/>
		</g>
	</g>
</g>
<g id="Plant">
	<g>
		<path style="fill:none;stroke:#263238;stroke-width:2;stroke-linecap:round;stroke-miterlimit:10;" d="M102.882,264.217
			c0,0-14.718-8.177-15.808,10.357c-1.09,18.534-3.816,139.002-3.816,139.002"/>
		<path style="fill:none;stroke:#263238;stroke-width:2;stroke-linecap:round;stroke-miterlimit:10;" d="M79.43,276.207
			c0,0,12.005,26.712,6.554,135.733"/>
		<g>
			<path style="fill:#92E3A9;" d="M91.224,267.947c0,0-5.63,3.608-8.833-0.521c-3.203-4.129,2.167-11.691-2.567-14.925
				c-4.734-3.234-12.904,1.701-12.904,1.701s6.293,1.849,6.09,5.284c-0.203,3.435-3.234,4.734-3.638,3.232
				c-0.404-1.501-3.405-9.065-8.515-5.919c-5.11,3.146-5.89,8.024-5.89,8.024s11.894-1.268,12.615,3.207
				c0.721,4.474-4.879-0.78-9.786-1.07c-4.907-0.29-9.382,0.431-9.065,3.405c0.317,2.973-0.463,7.852-0.463,7.852
				s4.158-3.694,9.556-3.376c5.398,0.318,5.195,3.754,0.288,3.464c-4.907-0.29-9.123,4.386-9.123,4.386s4.473,7.651,10.159,11.433
				c5.686,3.783,7.736,2.426,8.401-0.489c0.664-2.916-0.864-10.392,2.571-10.19c3.435,0.203-5.689,12.96-1.301,13.712
				c4.388,0.751,7.91-0.518,9.065-3.405c1.155-2.887,1.155-2.887,1.155-2.887s-1.529-7.477-0.864-10.392
				c0.664-2.915,1.472,0.087,2.251,3.58c0.779,3.493,1.268,11.894,2.769,11.49c1.501-0.404,6.294-6.523,7.421-8.919
				c1.126-2.396-6.32-9.729-6.233-11.202c0.087-1.472,5.831,1.329,6.726,2.859c0.895,1.53,1.76,3.551,1.76,3.551
				s3.58-2.251,3.494-9.15C96.276,265.783,91.224,267.947,91.224,267.947z"/>
			<path style="opacity:0.3;fill:#263238;" d="M91.224,267.947c0,0-5.63,3.608-8.833-0.521c-3.203-4.129,2.167-11.691-2.567-14.925
				c-4.734-3.234-12.904,1.701-12.904,1.701s6.293,1.849,6.09,5.284c-0.203,3.435-3.234,4.734-3.638,3.232
				c-0.404-1.501-3.405-9.065-8.515-5.919c-5.11,3.146-5.89,8.024-5.89,8.024s11.894-1.268,12.615,3.207
				c0.721,4.474-4.879-0.78-9.786-1.07c-4.907-0.29-9.382,0.431-9.065,3.405c0.317,2.973-0.463,7.852-0.463,7.852
				s4.158-3.694,9.556-3.376c5.398,0.318,5.195,3.754,0.288,3.464c-4.907-0.29-9.123,4.386-9.123,4.386s4.473,7.651,10.159,11.433
				c5.686,3.783,7.736,2.426,8.401-0.489c0.664-2.916-0.864-10.392,2.571-10.19c3.435,0.203-5.689,12.96-1.301,13.712
				c4.388,0.751,7.91-0.518,9.065-3.405c1.155-2.887,1.155-2.887,1.155-2.887s-1.529-7.477-0.864-10.392
				c0.664-2.915,1.472,0.087,2.251,3.58c0.779,3.493,1.268,11.894,2.769,11.49c1.501-0.404,6.294-6.523,7.421-8.919
				c1.126-2.396-6.32-9.729-6.233-11.202c0.087-1.472,5.831,1.329,6.726,2.859c0.895,1.53,1.76,3.551,1.76,3.551
				s3.58-2.251,3.494-9.15C96.276,265.783,91.224,267.947,91.224,267.947z"/>
			<path style="fill:none;stroke:#263238;stroke-linecap:round;stroke-miterlimit:10;" d="M62.683,284.125
				c3.671-4.539,9.082-10.68,13.616-13.611"/>
			<path style="fill:none;stroke:#263238;stroke-linecap:round;stroke-miterlimit:10;" d="M58.427,289.65
				c0,0,0.943-1.311,2.471-3.275"/>
			<path style="fill:none;stroke:#263238;stroke-linecap:round;stroke-miterlimit:10;" d="M78.695,271.64
				c0,0,5.455,7.708,6.464,15.647"/>
			<path style="fill:none;stroke:#263238;stroke-linecap:round;stroke-miterlimit:10;" d="M72.517,276.2c0,0,1.53-0.895,0.951,8.92"
				/>
			<path style="fill:none;stroke:#263238;stroke-linecap:round;stroke-miterlimit:10;" d="M76.502,267.079
				c0,0,3.118-2.771,1.474-8.285"/>
			
				<line style="fill:none;stroke:#263238;stroke-linecap:round;stroke-miterlimit:10;" x1="72.286" y1="271.755" x2="70.064" y2="267.684"/>
			<path style="fill:none;stroke:#263238;stroke-linecap:round;stroke-miterlimit:10;" d="M67.609,275.911
				c0,0-7.072-5.342-11.488-5.602"/>
		</g>
		<g>
			<path style="fill:#92E3A9;" d="M111.29,253.403c0,0-0.226,8.095-6.543,8.489c-6.317,0.393-10.228-10.138-16.692-7.603
				c-6.465,2.535-7.093,14.079-7.093,14.079s6.14-5.04,9.441-2.496c3.301,2.544,2.535,6.464,0.757,5.846
				c-1.778-0.619-11.397-2.77-11.73,4.491c-0.334,7.26,4.019,11.367,4.019,11.367s6.837-12.772,11.809-10.444
				c4.971,2.328-4.106,4.352-7.741,9.068c-3.635,4.716-5.963,9.687-2.77,11.397c3.193,1.709,7.546,5.816,7.546,5.816
				s-0.865-6.681,3.133-11.868c3.998-5.188,7.3-2.643,3.665,2.073c-3.635,4.716-1.827,12.124-1.827,12.124
				s10.709,0.736,18.372-2.379c7.663-3.115,7.702-6.092,5.236-8.744c-2.466-2.652-10.994-6.218-8.45-9.52
				c2.544-3.301,9.098,14.53,12.841,10.649c3.743-3.881,4.873-8.273,2.77-11.397c-2.103-3.124-2.103-3.124-2.103-3.124
				s-8.528-3.566-10.994-6.218c-2.466-2.652,1.09-1.415,5.119,0.186c4.028,1.601,12.772,6.837,13.391,5.059
				c0.619-1.778-2.241-10.748-3.872-13.509c-1.631-2.761-14.049-0.304-15.464-1.394c-1.415-1.091,5.305-4.932,7.447-4.785
				c2.142,0.147,4.755,0.658,4.755,0.658s0.186-5.118-6.78-9.736S111.29,253.403,111.29,253.403z"/>
			<path style="opacity:0.2;fill:#263238;" d="M111.29,253.403c0,0-0.226,8.095-6.543,8.489
				c-6.317,0.393-10.228-10.138-16.692-7.603c-6.465,2.535-7.093,14.079-7.093,14.079s6.14-5.04,9.441-2.496
				c3.301,2.544,2.535,6.464,0.757,5.846c-1.778-0.619-11.397-2.77-11.73,4.491c-0.334,7.26,4.019,11.367,4.019,11.367
				s6.837-12.772,11.809-10.444c4.971,2.328-4.106,4.352-7.741,9.068c-3.635,4.716-5.963,9.687-2.77,11.397
				c3.193,1.709,7.546,5.816,7.546,5.816s-0.865-6.681,3.133-11.868c3.998-5.188,7.3-2.643,3.665,2.073
				c-3.635,4.716-1.827,12.124-1.827,12.124s10.709,0.736,18.372-2.379c7.663-3.115,7.702-6.092,5.236-8.744
				c-2.466-2.652-10.994-6.218-8.45-9.52c2.544-3.301,9.098,14.53,12.841,10.649c3.743-3.881,4.873-8.273,2.77-11.397
				c-2.103-3.124-2.103-3.124-2.103-3.124s-8.528-3.566-10.994-6.218c-2.466-2.652,1.09-1.415,5.119,0.186
				c4.028,1.601,12.772,6.837,13.391,5.059c0.619-1.778-2.241-10.748-3.872-13.509c-1.631-2.761-14.049-0.304-15.464-1.394
				c-1.415-1.091,5.305-4.932,7.447-4.785c2.142,0.147,4.755,0.658,4.755,0.658s0.186-5.118-6.78-9.736
				S111.29,253.403,111.29,253.403z"/>
			<path style="fill:none;stroke:#263238;stroke-linecap:round;stroke-miterlimit:10;" d="M108.033,293.005
				c-2.042-6.769-4.503-16.372-4.346-22.91"/>
			<path style="fill:none;stroke:#263238;stroke-linecap:round;stroke-miterlimit:10;" d="M110.664,301.032
				c0,0-0.67-1.837-1.595-4.706"/>
			<path style="fill:none;stroke:#263238;stroke-linecap:round;stroke-miterlimit:10;" d="M106.447,268.464
				c0,0,11.436-0.207,20.072,4.194"/>
			<path style="fill:none;stroke:#263238;stroke-linecap:round;stroke-miterlimit:10;" d="M106.802,277.758
				c0,0,0.147-2.142,9.579,5.128"/>
			<path style="fill:none;stroke:#263238;stroke-linecap:round;stroke-miterlimit:10;" d="M100.386,267.551
				c0,0-0.649-5.01-7.29-7.122"/>
			
				<line style="fill:none;stroke:#263238;stroke-linecap:round;stroke-miterlimit:10;" x1="102.194" y1="274.958" x2="96.604" y2="274.409"/>
			<path style="fill:none;stroke:#263238;stroke-linecap:round;stroke-miterlimit:10;" d="M103.167,282.474
				c0,0-10.168,3.439-13.44,7.684"/>
		</g>
		<path style="fill:none;stroke:#263238;stroke-width:2;stroke-linecap:round;stroke-miterlimit:10;" d="M43.466,307.28
			c0,0,32.161,21.259,31.616,103.57"/>
		<g>
			<path style="fill:#92E3A9;" d="M83.119,301.664c0,0-1.024,9.32-8.351,9.178c-7.327-0.143-10.845-12.664-18.544-10.349
				c-7.699,2.315-9.513,15.577-9.513,15.577s7.561-5.237,11.13-1.989c3.569,3.248,2.315,7.699,0.322,6.817
				c-1.994-0.882-12.889-4.272-13.96,4.074c-1.07,8.346,3.565,13.496,3.565,13.496s9.095-14.093,14.612-10.937
				c5.517,3.156-5.149,4.635-9.789,9.734c-4.639,5.099-7.795,10.615-4.272,12.889c3.523,2.274,8.158,7.423,8.158,7.423
				s-0.368-7.791,4.736-13.399c5.103-5.609,8.673-2.361,4.033,2.738c-4.64,5.099-3.252,13.817-3.252,13.817
				s12.288,1.86,21.424-1.011c9.136-2.871,9.463-6.302,6.867-9.596s-12.099-8.213-8.852-11.782
				c3.248-3.569,9.127,17.625,13.813,13.5s6.403-9.086,4.272-12.889c-2.131-3.804-2.131-3.804-2.131-3.804s-9.504-4.92-12.099-8.213
				c-2.595-3.294,1.392-1.53,5.889,0.698c4.497,2.228,14.093,9.095,14.975,7.102c0.882-1.994-1.571-12.614-3.193-15.953
				c-1.621-3.34-16.183-1.677-17.713-3.068c-1.53-1.392,6.587-5.191,9.045-4.819c2.457,0.372,5.425,1.208,5.425,1.208
				s0.698-5.889-6.904-11.874C85.209,294.246,83.119,301.664,83.119,301.664z"/>
			<path style="opacity:0.3;fill:#263238;" d="M83.119,301.664c0,0-1.024,9.32-8.351,9.178
				c-7.327-0.143-10.845-12.664-18.544-10.349c-7.699,2.315-9.513,15.577-9.513,15.577s7.561-5.237,11.13-1.989
				c3.569,3.248,2.315,7.699,0.322,6.817c-1.994-0.882-12.889-4.272-13.96,4.074c-1.07,8.346,3.565,13.496,3.565,13.496
				s9.095-14.093,14.612-10.937c5.517,3.156-5.149,4.635-9.789,9.734c-4.639,5.099-7.795,10.615-4.272,12.889
				c3.523,2.274,8.158,7.423,8.158,7.423s-0.368-7.791,4.736-13.399c5.103-5.609,8.673-2.361,4.033,2.738
				c-4.64,5.099-3.252,13.817-3.252,13.817s12.288,1.86,21.424-1.011c9.136-2.871,9.463-6.302,6.867-9.596
				s-12.099-8.213-8.852-11.782c3.248-3.569,9.127,17.625,13.813,13.5s6.403-9.086,4.272-12.889
				c-2.131-3.804-2.131-3.804-2.131-3.804s-9.504-4.92-12.099-8.213c-2.595-3.294,1.392-1.53,5.889,0.698
				c4.497,2.228,14.093,9.095,14.975,7.102c0.882-1.994-1.571-12.614-3.193-15.953c-1.621-3.34-16.183-1.677-17.713-3.068
				c-1.53-1.392,6.587-5.191,9.045-4.819c2.457,0.372,5.425,1.208,5.425,1.208s0.698-5.889-6.904-11.874
				C85.209,294.246,83.119,301.664,83.119,301.664z"/>
			<path style="fill:none;stroke:#263238;stroke-linecap:round;stroke-miterlimit:10;" d="M75.623,347.055
				c-1.717-8.004-3.65-19.317-2.853-26.847"/>
			<path style="fill:none;stroke:#263238;stroke-linecap:round;stroke-miterlimit:10;" d="M77.901,356.566
				c0,0-0.599-2.183-1.396-5.58"/>
			<path style="fill:none;stroke:#263238;stroke-linecap:round;stroke-miterlimit:10;" d="M76.11,318.587
				c0,0,13.216,0.841,22.765,6.734"/>
			<path style="fill:none;stroke:#263238;stroke-linecap:round;stroke-miterlimit:10;" d="M75.641,329.345
				c0,0,0.372-2.458,10.57,6.821"/>
			<path style="fill:none;stroke:#263238;stroke-linecap:round;stroke-miterlimit:10;" d="M69.201,316.961
				c0,0-0.276-5.843-7.74-8.907"/>
			
				<line style="fill:none;stroke:#263238;stroke-linecap:round;stroke-miterlimit:10;" x1="70.588" y1="325.679" x2="64.189" y2="324.517"/>
			<path style="fill:none;stroke:#263238;stroke-linecap:round;stroke-miterlimit:10;" d="M71.002,334.444
				c0,0-12.058,3.009-16.233,7.598"/>
		</g>
		<path style="fill:none;stroke:#263238;stroke-width:2;stroke-linecap:round;stroke-miterlimit:10;" d="M56.003,372.148
			c0,0,20.714,15.808,22.894,39.248L74.537,332.9"/>
		<path style="fill:none;stroke:#263238;stroke-width:2;stroke-linecap:round;stroke-miterlimit:10;" d="M106.153,360.701
			c-27.255-4.906-27.255,50.695-27.255,50.695"/>
		<path style="fill:none;stroke:#263238;stroke-width:2;stroke-linecap:round;stroke-miterlimit:10;" d="M82.168,410.85
			c0,0-15.808-115.017,29.981-115.017"/>
		<g>
			<path style="fill:#92E3A9;" d="M95.767,357.394c-3.723-4.188-11.634-4.188-16.288,6.515c-4.654,10.704-0.465,8.842-0.465,8.842
				s8.842-2.792,14.427-4.654c5.584-1.862,13.03-6.515,13.496-3.723c0.465,2.792-3.723,5.584-8.842,6.515
				c-5.119,0.931-18.615,4.654-17.219,7.446c1.396,2.792,4.654,11.169,4.654,11.169s6.515-5.585,12.565-9.307
				c6.05-3.723,9.773-2.327,6.515,1.861c-3.257,4.188-12.565,8.842-10.703,14.427c1.861,5.585,13.03,12.565,13.03,12.565
				s1.396-11.634,4.654-15.357c3.257-3.723,3.257,0.465,2.327,6.981c-0.931,6.515-0.931,8.377-0.931,8.377l13.03,4.654
				c0,0,4.654-6.981,6.981-9.307c2.327-2.327,2.327-2.327,2.327-2.327s-10.238-8.842-10.703-14.427c-0.465-5.585,6.98,0,9.307,0.931
				c2.327,0.931,6.05,7.446,6.05,7.446s2.327-10.704,2.792-14.427c0.465-3.723,0.465-3.723,0.465-3.723s-9.773-3.723-13.496-3.723
				c-3.723,0-5.584,2.792-5.584-0.931c0-3.723,3.723-6.05,7.911-5.584c4.188,0.465,11.169,2.792,11.169,2.792
				s2.792-2.327,1.862-9.308c-0.931-6.98-3.258-6.98-8.842-5.119c-5.584,1.862-9.307,6.05-13.496,6.05s-1.861-5.119,0.931-6.515
				c2.792-1.396,9.773-4.188,11.169-4.654c1.396-0.465-7.446-6.981-12.1-7.911c-4.654-0.931-10.679,2.348-10.238,6.98
				C113.451,359.721,99.49,361.583,95.767,357.394z"/>
			<path style="fill:none;stroke:#263238;stroke-linecap:round;stroke-miterlimit:10;" d="M125.725,405.31
				c0.139,1.402,0.238,2.805,0.292,4.206"/>
			<path style="fill:none;stroke:#263238;stroke-linecap:round;stroke-miterlimit:10;" d="M116.376,371.902
				c3.268,7.553,7.048,17.968,8.76,28.837"/>
			<path style="fill:none;stroke:#263238;stroke-linecap:round;stroke-miterlimit:10;" d="M114.7,368.167
				c-2.305-4.958-4.041-7.98-4.041-7.98s4.188-1.861,6.05-5.585c1.862-3.723,4.654-5.584,4.654-5.584"/>
			<path style="fill:none;stroke:#263238;stroke-linecap:round;stroke-miterlimit:10;" d="M94.371,376.009
				c0,0,16.753-6.98,16.753-5.584"/>
			<path style="fill:none;stroke:#263238;stroke-linecap:round;stroke-miterlimit:10;" d="M120.432,367.167
				c0,0,7.446-3.723,13.961-3.723"/>
			<path style="fill:none;stroke:#263238;stroke-linecap:round;stroke-miterlimit:10;" d="M117.64,378.336
				c0,0-4.188,3.258-8.842,8.842c-4.654,5.584-6.515,10.703-6.515,10.703"/>
			<path style="fill:none;stroke:#263238;stroke-linecap:round;stroke-miterlimit:10;" d="M122.759,380.198
				c0,0,9.773-2.792,14.892,1.861"/>
		</g>
		<g>
			<path style="fill:#92E3A9;" d="M140.461,317.316c-5.067-2.997-10.67-3.062-13.416-6.225c-2.746-3.163,2.645-4.762,5.53-3.568
				c2.885,1.193,9.57,4.634,10.836,5.383c1.267,0.749,0.39-10.199-1.958-14.323c-2.348-4.124-8.774-6.525-11.983-3.155
				c-6.77,7.11-17.328-2.213-16.606-7.77c0.722-5.557-4.464-11.531-15.598-8.029c-11.133,3.503-6.982,5.445-6.982,5.445
				s7.905,4.846,12.972,7.843c5.067,2.997,13.462,5.569,11.659,7.751c-1.803,2.182-6.658,0.85-10.716-2.406
				c-4.059-3.256-15.717-11.006-16.911-8.121c-1.193,2.885-5.383,10.836-5.383,10.836s8.488,1.259,15.266,3.387
				c6.777,2.128,8.164,5.854,2.865,6.14c-5.298,0.286-14.914-3.692-17.911,1.375c-2.997,5.067-0.946,18.077-0.946,18.077
				s9.701-6.573,14.648-6.554c4.947,0.019,1.784,2.765-3.746,6.333c-5.53,3.568-6.936,4.789-6.936,4.789l5.028,12.891
				c0,0,8.322-1.062,11.605-0.83s3.283,0.232,3.283,0.232s-0.035-13.528,3.877-17.54c3.912-4.012,4.576,5.271,5.399,7.638
				c0.823,2.367-1.657,9.45-1.657,9.45s9.608-5.26,12.724-7.349c3.116-2.089,3.116-2.089,3.116-2.089s-3.595-9.82-6.036-12.632
				c-2.441-2.811-5.77-2.387-2.958-4.827c2.811-2.441,7.009-1.155,9.403,2.313c2.394,3.468,5.213,10.265,5.213,10.265
				s3.588,0.583,8.249-4.696C147.053,322.07,145.528,320.313,140.461,317.316z M96.42,332.212c-3.723-1.862,5.119-5.584,5.119-5.584
				C104.796,326.162,100.143,334.074,96.42,332.212z M102.689,314.838c-1.587-0.793,3.174-2.381,3.174-2.381
				C112.74,313.78,104.276,315.632,102.689,314.838z"/>
			<path style="fill:none;stroke:#263238;stroke-linecap:round;stroke-miterlimit:10;" d="M96.321,341.692
				c-0.967,1.024-1.962,2.019-2.985,2.977"/>
			<path style="fill:none;stroke:#263238;stroke-linecap:round;stroke-miterlimit:10;" d="M115.419,312.731
				c-3.561,7.419-8.948,17.101-16.033,25.519"/>
			<path style="fill:none;stroke:#263238;stroke-linecap:round;stroke-miterlimit:10;" d="M117.142,309.017
				c2.232-4.991,3.377-8.283,3.377-8.283s4.151,1.942,8.183,0.907c4.032-1.035,7.268-0.147,7.268-0.147"/>
			<path style="fill:none;stroke:#263238;stroke-linecap:round;stroke-miterlimit:10;" d="M97.893,298.807
				c0,0,16.254,8.075,15.2,8.99"/>
			<path style="fill:none;stroke:#263238;stroke-linecap:round;stroke-miterlimit:10;" d="M121.654,312.69
				c0,0,7.693,3.182,11.964,8.102"/>
			<path style="fill:none;stroke:#263238;stroke-linecap:round;stroke-miterlimit:10;" d="M111.39,317.904
				c0,0-5.206-1.027-12.473-0.88c-7.268,0.147-12.354,2.097-12.354,2.097"/>
			<path style="fill:none;stroke:#263238;stroke-linecap:round;stroke-miterlimit:10;" d="M113.34,322.989
				c0,0,8.515,5.549,8.357,12.466"/>
		</g>
		<g>
			<path style="fill:#92E3A9;" d="M68.147,381.8c-4.077-2.412-8.587-2.464-10.796-5.01c-2.209-2.545,2.129-3.832,4.45-2.872
				c2.321,0.96,7.701,3.729,8.72,4.332c1.019,0.603,0.314-8.208-1.576-11.527c-1.89-3.319-7.061-5.251-9.643-2.539
				c-5.448,5.721-13.944-1.781-13.363-6.253c0.581-4.472-3.593-9.28-12.552-6.461c-8.96,2.819-5.619,4.382-5.619,4.382
				s6.362,3.9,10.439,6.312c4.077,2.412,10.834,4.481,9.382,6.237c-1.451,1.756-5.358,0.684-8.624-1.936
				c-3.266-2.62-12.649-8.857-13.609-6.535c-0.96,2.322-4.332,8.72-4.332,8.72s6.831,1.013,12.285,2.725
				c5.454,1.712,6.57,4.711,2.306,4.941c-4.264,0.23-12.002-2.971-14.414,1.106c-2.412,4.077-0.761,14.547-0.761,14.547
				s7.807-5.29,11.788-5.274c3.981,0.015,1.436,2.225-3.014,5.097c-4.45,2.872-5.581,3.854-5.581,3.854l4.046,10.374
				c0,0,6.697-0.855,9.339-0.668c2.642,0.186,2.642,0.186,2.642,0.186s-0.028-10.887,3.12-14.115
				c3.148-3.229,3.683,4.242,4.345,6.147c0.662,1.905-1.333,7.605-1.333,7.605s7.732-4.233,10.24-5.914
				c2.508-1.681,2.508-1.681,2.508-1.681s-2.893-7.903-4.858-10.165c-1.964-2.262-4.643-1.921-2.38-3.885
				c2.262-1.964,5.64-0.929,7.567,1.862c1.927,2.791,4.195,8.26,4.195,8.26s2.887,0.469,6.638-3.779S72.225,384.211,68.147,381.8z
				 M32.705,393.787c-2.996-1.498,4.12-4.494,4.12-4.494C39.446,388.918,35.701,395.285,32.705,393.787z M37.75,379.806
				c-1.277-0.639,2.554-1.916,2.554-1.916C45.839,378.954,39.027,380.444,37.75,379.806z"/>
			<path style="fill:none;stroke:#263238;stroke-linecap:round;stroke-miterlimit:10;" d="M32.625,401.416
				c-0.778,0.824-1.579,1.625-2.402,2.396"/>
			<path style="fill:none;stroke:#263238;stroke-linecap:round;stroke-miterlimit:10;" d="M47.995,378.11
				c-2.866,5.971-7.201,13.762-12.903,20.537"/>
			<path style="fill:none;stroke:#263238;stroke-linecap:round;stroke-miterlimit:10;" d="M49.381,375.121
				c1.797-4.017,2.718-6.665,2.718-6.665s3.341,1.563,6.585,0.73c3.245-0.833,5.849-0.118,5.849-0.118"/>
			<path style="fill:none;stroke:#263238;stroke-linecap:round;stroke-miterlimit:10;" d="M33.89,366.904
				c0,0,13.081,6.498,12.232,7.235"/>
			<path style="fill:none;stroke:#263238;stroke-linecap:round;stroke-miterlimit:10;" d="M53.013,378.077
				c0,0,6.191,2.561,9.628,6.52"/>
			<path style="fill:none;stroke:#263238;stroke-linecap:round;stroke-miterlimit:10;" d="M44.752,382.272
				c0,0-4.189-0.827-10.038-0.708c-5.849,0.118-9.942,1.688-9.942,1.688"/>
			<path style="fill:none;stroke:#263238;stroke-linecap:round;stroke-miterlimit:10;" d="M46.322,386.365
				c0,0,6.853,4.466,6.725,10.032"/>
		</g>
		<g>
			<path style="fill:#92E3A9;" d="M51.521,304.952c0,0-5.119,3.723-8.377,0c-3.257-3.723,1.396-11.169-3.257-13.961
				c-4.654-2.792-12.1,2.327-12.1,2.327s6.05,1.396,6.05,4.654s-2.792,4.654-3.258,3.258c-0.465-1.396-3.723-8.377-8.377-5.119
				s-5.119,7.911-5.119,7.911s11.169-1.861,12.1,2.327c0.931,4.189-4.654-0.465-9.307-0.465c-4.654,0-8.842,0.931-8.377,3.723
				c0.465,2.792,0,7.446,0,7.446s3.723-3.723,8.842-3.723s5.119,3.258,0.465,3.258s-8.377,4.654-8.377,4.654
				s4.654,6.98,10.238,10.238c5.584,3.258,7.446,1.861,7.911-0.931s-1.396-9.773,1.861-9.773s-4.654,12.565-0.465,13.03
				s7.446-0.931,8.377-3.723c0.931-2.792,0.931-2.792,0.931-2.792s-1.861-6.98-1.396-9.773c0.465-2.792,1.396,0,2.327,3.258
				c0.931,3.258,1.861,11.169,3.258,10.703c1.396-0.465,5.584-6.515,6.515-8.842c0.931-2.327-6.515-8.842-6.515-10.238
				s5.584,0.931,6.515,2.327c0.931,1.396,1.861,3.258,1.861,3.258s3.258-2.327,2.792-8.842
				C56.175,302.625,51.521,304.952,51.521,304.952z"/>
			<path style="fill:none;stroke:#263238;stroke-linecap:round;stroke-miterlimit:10;" d="M25.452,321.831
				c3.216-4.494,7.987-10.599,12.109-13.622"/>
			<path style="fill:none;stroke:#263238;stroke-linecap:round;stroke-miterlimit:10;" d="M21.738,327.29
				c0,0,0.818-1.291,2.152-3.232"/>
			<path style="fill:none;stroke:#263238;stroke-linecap:round;stroke-miterlimit:10;" d="M39.887,309.141
				c0,0,5.585,6.981,6.981,14.426"/>
			<path style="fill:none;stroke:#263238;stroke-linecap:round;stroke-miterlimit:10;" d="M34.303,313.794
				c0,0,1.396-0.931,1.396,8.377"/>
			<path style="fill:none;stroke:#263238;stroke-linecap:round;stroke-miterlimit:10;" d="M37.56,304.952
				c0,0,2.792-2.792,0.931-7.911"/>
			
				<line style="fill:none;stroke:#263238;stroke-linecap:round;stroke-miterlimit:10;" x1="33.837" y1="309.606" x2="31.51" y2="305.883"/>
			<path style="fill:none;stroke:#263238;stroke-linecap:round;stroke-miterlimit:10;" d="M29.649,313.794
				c0,0-6.981-4.654-11.169-4.654"/>
		</g>
		
			<rect x="62.544" y="409.215" style="fill:#263238;stroke:#263238;stroke-width:2;stroke-linecap:round;stroke-miterlimit:10;" width="35.977" height="51.785"/>
	</g>
</g>
<g id="Page">
	<g>
		<rect x="90.8" y="27.157" style="fill:#FFFFFF;stroke:#263238;stroke-miterlimit:10;" width="315.076" height="342.554"/>
		
			<rect x="90.799" y="122.491" style="fill:#FFFFFF;stroke:#263238;stroke-linecap:round;stroke-linejoin:round;stroke-miterlimit:10;" width="315.076" height="79.357"/>
		
			<rect x="90.799" y="27.157" style="fill:#92E3A9;stroke:#263238;stroke-linecap:round;stroke-linejoin:round;stroke-miterlimit:10;" width="315.076" height="126.024"/>
		<g>
			<path style="fill:#FFFFFF;" d="M376.193,88.353c0-2.014-1.633-3.647-3.647-3.647c-2.014,0-3.647,1.633-3.647,3.647
				c0,2.014,1.633,3.647,3.647,3.647C374.56,91.999,376.193,90.367,376.193,88.353z"/>
			<path style="fill:#FFFFFF;" d="M292.724,85.111c0-2.014-1.633-3.647-3.647-3.647c-2.014,0-3.647,1.633-3.647,3.647
				s1.633,3.647,3.647,3.647C291.091,88.758,292.724,87.125,292.724,85.111z"/>
			<path style="fill:#FFFFFF;" d="M333.648,138.191c0-2.014-1.633-3.647-3.647-3.647c-2.014,0-3.647,1.633-3.647,3.647
				c0,2.014,1.633,3.647,3.647,3.647C332.015,141.837,333.648,140.205,333.648,138.191z"/>
			<circle style="fill:#FFFFFF;" cx="338.51" cy="78.628" r="3.647"/>
			<path style="fill:#FFFFFF;" d="M229.92,129.277c0-2.014-1.633-3.647-3.647-3.647c-2.014,0-3.647,1.633-3.647,3.647
				c0,2.014,1.633,3.647,3.647,3.647C228.288,132.923,229.92,131.291,229.92,129.277z"/>
			<path style="fill:#FFFFFF;" d="M200.037,147.761c0-2.014-1.633-3.647-3.647-3.647c-2.014,0-3.647,1.633-3.647,3.647
				c0,2.014,1.633,3.647,3.647,3.647C198.405,151.408,200.037,149.775,200.037,147.761z"/>
			<path style="fill:#FFFFFF;" d="M212.902,72.956c0-2.014-1.633-3.647-3.647-3.647c-2.014,0-3.647,1.633-3.647,3.647
				s1.633,3.647,3.647,3.647C211.27,76.602,212.902,74.97,212.902,72.956z"/>
			<circle style="fill:#FFFFFF;" cx="150.099" cy="68.904" r="3.647"/>
			<path style="fill:#FFFFFF;" d="M114.037,89.163c0-2.014-1.633-3.647-3.647-3.647c-2.014,0-3.647,1.633-3.647,3.647
				s1.633,3.647,3.647,3.647C112.404,92.81,114.037,91.177,114.037,89.163z"/>
			<circle style="fill:#FFFFFF;" cx="200.747" cy="114.285" r="3.647"/>
			<path style="fill:#FFFFFF;" d="M391.995,127.656c0-2.014-1.633-3.647-3.647-3.647c-2.014,0-3.647,1.633-3.647,3.647
				s1.633,3.647,3.647,3.647C390.362,131.303,391.995,129.67,391.995,127.656z"/>
			<circle style="fill:#FFFFFF;" cx="259.904" cy="77.818" r="3.647"/>
			<polyline style="fill:none;stroke:#FFFFFF;stroke-miterlimit:10;" points="338.915,80.249 330.001,138.191 372.546,88.353 			"/>
			<polyline style="fill:none;stroke:#FFFFFF;stroke-miterlimit:10;" points="289.077,85.111 226.274,129.277 328.381,137.786 			
				"/>
			<line style="fill:none;stroke:#FFFFFF;stroke-miterlimit:10;" x1="290.293" y1="85.111" x2="330.001" y2="138.191"/>
			<line style="fill:none;stroke:#FFFFFF;stroke-miterlimit:10;" x1="150.099" y1="68.904" x2="200.747" y2="114.285"/>
			<polyline style="fill:none;stroke:#FFFFFF;stroke-miterlimit:10;" points="224.551,129.045 196.179,150.108 114.442,115.095 			
				"/>
			<polyline style="fill:none;stroke:#FFFFFF;stroke-miterlimit:10;" points="196.179,150.108 201.962,113.88 114.442,115.095 
				110.39,89.163 150.099,68.904 209.256,72.956 259.904,77.818 330.001,138.191 388.348,127.656 372.546,88.353 338.51,78.628 
				289.077,85.111 259.904,77.818 226.274,129.277 200.747,114.285 209.256,76.602 			"/>
			<polyline style="fill:none;stroke:#FFFFFF;stroke-miterlimit:10;" points="289.077,85.111 298.918,55.967 351.361,54.248 
				338.51,78.628 390.049,54.678 			"/>
			<polyline style="fill:none;stroke:#FFFFFF;stroke-miterlimit:10;" points="209.256,72.956 212.514,56.397 268.827,56.397 
				259.904,77.818 			"/>
			<line style="fill:none;stroke:#FFFFFF;stroke-miterlimit:10;" x1="110.39" y1="89.163" x2="110.39" y2="58.547"/>
			<line style="fill:none;stroke:#FFFFFF;stroke-miterlimit:10;" x1="151.473" y1="69.723" x2="128.26" y2="46.51"/>
		</g>
		
			<rect x="90.799" y="27.157" style="fill:#E8E8E8;stroke:#263238;stroke-linecap:round;stroke-linejoin:round;stroke-miterlimit:10;" width="315.076" height="34.805"/>
		<g>
			
				<rect x="90.8" y="27.157" style="fill:#263238;stroke:#263238;stroke-linecap:round;stroke-linejoin:round;stroke-miterlimit:10;" width="315.076" height="15.571"/>
			<g>
				<path style="fill:#E8E8E8;" d="M372.681,34.032c0-1.512-1.226-2.738-2.738-2.738c-1.512,0-2.738,1.226-2.738,2.738
					c0,1.512,1.226,2.738,2.738,2.738C371.455,36.77,372.681,35.544,372.681,34.032z"/>
				<path style="fill:#E8E8E8;" d="M383.633,34.032c0-1.512-1.226-2.738-2.738-2.738c-1.512,0-2.738,1.226-2.738,2.738
					c0,1.512,1.226,2.738,2.738,2.738C382.407,36.77,383.633,35.544,383.633,34.032z"/>
				<path style="fill:#E8E8E8;" d="M394.586,34.032c0-1.512-1.226-2.738-2.738-2.738c-1.512,0-2.738,1.226-2.738,2.738
					c0,1.512,1.226,2.738,2.738,2.738C393.36,36.77,394.586,35.544,394.586,34.032z"/>
			</g>
		</g>
		<g>
			
				<ellipse transform="matrix(0.9731 -0.2302 0.2302 0.9731 -26.8891 37.1832)" style="fill:#FFFFFF;" cx="145.926" cy="133.841" rx="42.852" ry="42.852"/>
			<g>
				<g>
					<path id="XMLID_8_" style="fill:#263238;" d="M136.789,108.889c0,0-1.461,0.014-1.598-1.848
						c-0.138-1.861,0.931-2.193,0.931-2.193s-1.207-1.53-0.377-3.105c0.83-1.576,3.608-1.119,3.608-1.119s-1.805-2.516,1.286-4.354
						c3.092-1.838,5.75,0.121,4.773,0.277c-0.977,0.157-1.916-1.456-0.078-2.612c1.839-1.156,5.883,0.079,5.671,1.756
						c-0.212,1.677-1.322-2.373,2.157-1.548c3.478,0.825,4.74,3.949,3.579,4.456c-1.161,0.507,1.475-2.801,3.331-0.594
						c1.856,2.207,1.883,5.128,1.132,5.068c-0.751-0.06,0.876-3.787,3.926-1.51c3.049,2.277,3.003,4.488,1.883,5.128
						c-1.12,0.64,1.028-4.713,2.815-1.313c1.787,3.4-1.314,5.68-3.623,8.154c-2.309,2.474-1.596,8.551-1.739,9.034
						c-0.143,0.484-7.059,3.215-9.28,3.61c-2.221,0.396-0.746-2.405-1.515-5.828c-0.769-3.423-3.335-5.557-2.394-8.192
						c0.941-2.635,0.844-4.363-2.15-5.045C146.133,106.431,136.789,108.889,136.789,108.889z"/>
					<path style="fill:#92E3A9;stroke:#263238;stroke-linecap:round;stroke-linejoin:round;stroke-miterlimit:10;" d="
						M145.926,176.692c12.479,0,23.705-5.34,31.534-13.854c-1.842-2.354-4.18-4.81-6.89-7.295
						c-7.945-7.283-11.255-7.283-11.255-7.283c-0.016-0.003-0.028-0.002-0.044-0.005c-4.765-2.943-13.092-3.646-14.855-3.842
						c-2.051-0.228-9.116-3.191-9.116-3.191s-10.027-6.381-13.674-6.609c-3.646-0.228-8.66,3.191-8.66,9.344
						c0,2.777,0.151,10.254,0.316,17.625C121.141,170.824,132.845,176.692,145.926,176.692z"/>
					
						<line style="fill:#92E3A9;stroke:#263238;stroke-linecap:round;stroke-linejoin:round;stroke-miterlimit:10;" x1="131.374" y1="151.012" x2="135.876" y2="175.18"/>
					
						<line style="fill:#92E3A9;stroke:#263238;stroke-linecap:round;stroke-linejoin:round;stroke-miterlimit:10;" x1="129.995" y1="143.613" x2="130.757" y2="147.7"/>
					<g>
						<path style="fill:#C9C9C9;stroke:#263238;stroke-linecap:round;stroke-linejoin:round;stroke-miterlimit:10;" d="
							M154.161,134.408l-4.497,12.849c-0.526,1.502-1.663,2.703-3.128,3.323c-1.3,0.551-2.973,1.159-4.575,1.45
							c-3.314,0.602-6.778-5.422-7.531-6.778c-0.753-1.356,1.657-7.531,1.657-7.531L154.161,134.408z"/>
						<path style="fill:#263238;stroke:#263238;stroke-miterlimit:10;" d="M141.72,137.521h-4.206l-1.681,0.881
							c-0.597,1.637-2.003,5.771-1.403,6.851c0.184,0.331,0.531,0.942,0.996,1.664l13.393-5.979L141.72,137.521z"/>
					</g>
					
						<path id="XMLID_1_" style="fill:#C9C9C9;stroke:#263238;stroke-linecap:round;stroke-linejoin:round;stroke-miterlimit:10;" d="
						M157.195,108.566c-0.207-0.668-1.994-4.069-7.716-5.517c-5.722-1.448-12.786,4.112-14.795,7.078
						c-2.009,2.967-1.969,7.348-3.066,9.007c-1.097,1.658-4.428,2.252-4.245,6.15c0.184,3.898,5.36,14.45,9.368,17.454
						c4.008,3.005,9.279,0.638,13.394-3.568c4.115-4.206,7.18-8.964,7.18-8.964s5.381,0.821,8.031-1.026
						c2.65-1.847,3.019-6.795,0.96-7.768c-2.059-0.973-8.635,2.385-8.635,2.385l-1.442-0.871l1.24-2.142
						c0,0-4.671-5.143-3.975-6.677C154.19,112.574,157.195,108.566,157.195,108.566z"/>
					<path id="XMLID_10_" style="fill:#263238;" d="M145.839,114.657c0,0-0.856-1.471,1.009-2.29
						c1.865-0.819,5.206,2.771,4.362,3.289C150.367,116.172,145.839,114.657,145.839,114.657z"/>
					<path id="XMLID_9_" style="fill:#263238;" d="M139.448,112.604c0,0-0.432-0.833-1.969-0.669
						c-1.537,0.163-3.882,2.298-3.174,2.847s3.493-0.333,4.745-0.772C140.303,113.571,139.879,113.297,139.448,112.604z"/>
					<path id="XMLID_22_" style="fill:none;stroke:#263238;stroke-linecap:round;stroke-linejoin:round;stroke-miterlimit:10;" d="
						M146.154,120.193c0,0,3.488-0.545,6.676,0.273"/>
				</g>
				<path style="fill:#263238;" d="M148.286,118.141c0,0.832-0.438,1.506-0.979,1.506c-0.541,0-0.979-0.674-0.979-1.506
					c0-0.832,0.438-1.506,0.979-1.506C147.848,116.635,148.286,117.309,148.286,118.141z"/>
				<path style="fill:#263238;" d="M139.626,117.84c0,0.832-0.438,1.506-0.979,1.506c-0.541,0-0.979-0.674-0.979-1.506
					c0-0.832,0.438-1.506,0.979-1.506C139.187,116.334,139.626,117.008,139.626,117.84z"/>
				<path style="fill:#C9C9C9;stroke:#263238;stroke-linecap:round;stroke-linejoin:round;stroke-miterlimit:10;" d="
					M142.262,116.786l-0.904,3.012c0,0-6.176,2.711-6.326,3.766c-0.151,1.054,4.217,2.711,6.326,2.862
					c2.109,0.151,3.163-1.958,3.163-1.958"/>
				
					<line style="fill:none;stroke:#263238;stroke-linecap:round;stroke-linejoin:round;stroke-miterlimit:10;" x1="133.249" y1="119.346" x2="138.647" y2="119.346"/>
				<path style="fill:#C9C9C9;stroke:#263238;stroke-linecap:round;stroke-linejoin:round;stroke-miterlimit:10;" d="
					M155.244,142.446l5.678-10.721c0.565-1.153,0.044-2.544-1.139-3.042l-2.713-0.807L155.244,142.446z"/>
				<polyline style="fill:none;stroke:#263238;stroke-linecap:round;stroke-linejoin:round;stroke-miterlimit:10;" points="
					154.215,133.247 157.178,131.88 156.494,130.057 				"/>
				<path style="fill:none;stroke:#263238;stroke-linecap:round;stroke-linejoin:round;stroke-miterlimit:10;" d="M144.087,130.385
					c0,0-5.738,1.766-9.048-1.324"/>
				<path style="fill:#C9C9C9;stroke:#263238;stroke-linecap:round;stroke-linejoin:round;stroke-miterlimit:10;" d="
					M146.695,144.186c0.684,2.279,3.874,6.381,3.874,6.381s8.533,12.415,14.99,21.366c4.492-2.321,8.518-5.414,11.909-9.102
					c-8.033-5.804-23.48-15.91-23.48-15.91l4.979-14.139c0.468-1.329,0.144-2.813-0.849-3.813c-0.73-0.735-1.551-1.42-2.079-1.42
					c-1.139,0-3.646,3.874-3.646,3.874l1.823,1.823C154.215,133.247,146.011,141.907,146.695,144.186z"/>
				<path style="fill:#C9C9C9;stroke:#263238;stroke-linecap:round;stroke-linejoin:round;stroke-miterlimit:10;" d="
					M154.215,133.247c0,0,3.354-0.678,2.963-1.367c-0.392-0.689-1.009-2.077-1.779-1.614"/>
			</g>
			
				<ellipse transform="matrix(0.9731 -0.2302 0.2302 0.9731 -26.8891 37.1832)" style="fill:none;stroke:#263238;stroke-miterlimit:10;" cx="145.926" cy="133.841" rx="42.852" ry="42.852"/>
		</g>
		<line style="fill:none;stroke:#263238;stroke-miterlimit:10;" x1="99.938" y1="183.848" x2="188.604" y2="183.848"/>
		<line style="fill:none;stroke:#263238;stroke-miterlimit:10;" x1="99.938" y1="190.515" x2="213.271" y2="190.515"/>
		<g>
			<g>
				<line style="fill:none;stroke:#263238;stroke-miterlimit:10;" x1="351.063" y1="232.304" x2="388.205" y2="232.304"/>
				<line style="fill:none;stroke:#263238;stroke-miterlimit:10;" x1="261.211" y1="232.304" x2="346.721" y2="232.304"/>
				<line style="fill:none;stroke:#263238;stroke-miterlimit:10;" x1="194.072" y1="232.304" x2="255.532" y2="232.304"/>
				<line style="fill:none;stroke:#263238;stroke-miterlimit:10;" x1="119.251" y1="232.304" x2="190.064" y2="232.304"/>
				<line style="fill:none;stroke:#263238;stroke-miterlimit:10;" x1="99.938" y1="232.304" x2="116.244" y2="232.304"/>
				<line style="fill:none;stroke:#263238;stroke-miterlimit:10;" x1="370.102" y1="239.653" x2="388.205" y2="239.653"/>
				<line style="fill:none;stroke:#263238;stroke-miterlimit:10;" x1="346.387" y1="239.653" x2="365.76" y2="239.653"/>
				<line style="fill:none;stroke:#263238;stroke-miterlimit:10;" x1="285.26" y1="239.653" x2="343.38" y2="239.653"/>
				<line style="fill:none;stroke:#263238;stroke-miterlimit:10;" x1="236.493" y1="239.653" x2="280.25" y2="239.653"/>
				<line style="fill:none;stroke:#263238;stroke-miterlimit:10;" x1="159.333" y1="239.653" x2="231.816" y2="239.653"/>
				<line style="fill:none;stroke:#263238;stroke-miterlimit:10;" x1="99.938" y1="239.653" x2="154.323" y2="239.653"/>
				<line style="fill:none;stroke:#263238;stroke-miterlimit:10;" x1="186.055" y1="247.001" x2="248.518" y2="247.001"/>
				<line style="fill:none;stroke:#263238;stroke-miterlimit:10;" x1="108.896" y1="247.001" x2="182.047" y2="247.001"/>
				<line style="fill:none;stroke:#263238;stroke-miterlimit:10;" x1="99.938" y1="247.001" x2="105.89" y2="247.001"/>
			</g>
			<g>
				<line style="fill:none;stroke:#263238;stroke-miterlimit:10;" x1="351.063" y1="264.684" x2="388.205" y2="264.684"/>
				<line style="fill:none;stroke:#263238;stroke-miterlimit:10;" x1="261.211" y1="264.684" x2="346.721" y2="264.684"/>
				<line style="fill:none;stroke:#263238;stroke-miterlimit:10;" x1="194.072" y1="264.684" x2="255.532" y2="264.684"/>
				<line style="fill:none;stroke:#263238;stroke-miterlimit:10;" x1="119.251" y1="264.684" x2="190.064" y2="264.684"/>
				<line style="fill:none;stroke:#263238;stroke-miterlimit:10;" x1="99.938" y1="264.684" x2="116.244" y2="264.684"/>
				<line style="fill:none;stroke:#263238;stroke-miterlimit:10;" x1="370.102" y1="272.033" x2="388.205" y2="272.033"/>
				<line style="fill:none;stroke:#263238;stroke-miterlimit:10;" x1="346.387" y1="272.033" x2="365.76" y2="272.033"/>
				<line style="fill:none;stroke:#263238;stroke-miterlimit:10;" x1="285.26" y1="272.033" x2="343.38" y2="272.033"/>
				<line style="fill:none;stroke:#263238;stroke-miterlimit:10;" x1="236.493" y1="272.033" x2="280.25" y2="272.033"/>
				<line style="fill:none;stroke:#263238;stroke-miterlimit:10;" x1="159.333" y1="272.033" x2="231.816" y2="272.033"/>
				<line style="fill:none;stroke:#263238;stroke-miterlimit:10;" x1="99.938" y1="272.033" x2="154.323" y2="272.033"/>
				<line style="fill:none;stroke:#263238;stroke-miterlimit:10;" x1="252.192" y1="279.381" x2="296.951" y2="279.381"/>
				<line style="fill:none;stroke:#263238;stroke-miterlimit:10;" x1="186.055" y1="279.381" x2="248.518" y2="279.381"/>
				<line style="fill:none;stroke:#263238;stroke-miterlimit:10;" x1="108.896" y1="279.381" x2="182.047" y2="279.381"/>
				<line style="fill:none;stroke:#263238;stroke-miterlimit:10;" x1="99.938" y1="279.381" x2="105.89" y2="279.381"/>
			</g>
			<g>
				<line style="fill:none;stroke:#263238;stroke-miterlimit:10;" x1="351.063" y1="297.064" x2="388.205" y2="297.064"/>
				<line style="fill:none;stroke:#263238;stroke-miterlimit:10;" x1="261.211" y1="297.064" x2="346.721" y2="297.064"/>
				<line style="fill:none;stroke:#263238;stroke-miterlimit:10;" x1="194.072" y1="297.064" x2="255.532" y2="297.064"/>
				<line style="fill:none;stroke:#263238;stroke-miterlimit:10;" x1="119.251" y1="297.064" x2="190.064" y2="297.064"/>
				<line style="fill:none;stroke:#263238;stroke-miterlimit:10;" x1="99.938" y1="297.064" x2="116.244" y2="297.064"/>
				<line style="fill:none;stroke:#263238;stroke-miterlimit:10;" x1="370.102" y1="304.412" x2="388.205" y2="304.412"/>
				<line style="fill:none;stroke:#263238;stroke-miterlimit:10;" x1="346.387" y1="304.412" x2="365.76" y2="304.412"/>
				<line style="fill:none;stroke:#263238;stroke-miterlimit:10;" x1="285.26" y1="304.412" x2="343.38" y2="304.412"/>
				<line style="fill:none;stroke:#263238;stroke-miterlimit:10;" x1="236.493" y1="304.412" x2="280.25" y2="304.412"/>
				<line style="fill:none;stroke:#263238;stroke-miterlimit:10;" x1="159.333" y1="304.412" x2="231.816" y2="304.412"/>
				<line style="fill:none;stroke:#263238;stroke-miterlimit:10;" x1="99.938" y1="304.412" x2="154.323" y2="304.412"/>
				<line style="fill:none;stroke:#263238;stroke-miterlimit:10;" x1="374.779" y1="311.761" x2="388.205" y2="311.761"/>
				<line style="fill:none;stroke:#263238;stroke-miterlimit:10;" x1="320.333" y1="311.761" x2="371.104" y2="311.761"/>
				<line style="fill:none;stroke:#263238;stroke-miterlimit:10;" x1="300.625" y1="311.761" x2="316.993" y2="311.761"/>
				<line style="fill:none;stroke:#263238;stroke-miterlimit:10;" x1="252.192" y1="311.761" x2="296.951" y2="311.761"/>
				<line style="fill:none;stroke:#263238;stroke-miterlimit:10;" x1="186.055" y1="311.761" x2="248.518" y2="311.761"/>
				<line style="fill:none;stroke:#263238;stroke-miterlimit:10;" x1="108.896" y1="311.761" x2="182.047" y2="311.761"/>
				<line style="fill:none;stroke:#263238;stroke-miterlimit:10;" x1="99.938" y1="311.761" x2="105.89" y2="311.761"/>
			</g>
			<g>
				<line style="fill:none;stroke:#263238;stroke-miterlimit:10;" x1="351.063" y1="319.443" x2="388.205" y2="319.443"/>
				<line style="fill:none;stroke:#263238;stroke-miterlimit:10;" x1="261.211" y1="319.443" x2="346.721" y2="319.443"/>
				<line style="fill:none;stroke:#263238;stroke-miterlimit:10;" x1="194.072" y1="319.443" x2="255.532" y2="319.443"/>
				<line style="fill:none;stroke:#263238;stroke-miterlimit:10;" x1="119.251" y1="319.443" x2="190.064" y2="319.443"/>
				<line style="fill:none;stroke:#263238;stroke-miterlimit:10;" x1="99.938" y1="319.443" x2="116.244" y2="319.443"/>
				<line style="fill:none;stroke:#263238;stroke-miterlimit:10;" x1="370.102" y1="326.792" x2="388.205" y2="326.792"/>
				<line style="fill:none;stroke:#263238;stroke-miterlimit:10;" x1="346.387" y1="326.792" x2="365.76" y2="326.792"/>
				<line style="fill:none;stroke:#263238;stroke-miterlimit:10;" x1="285.26" y1="326.792" x2="343.38" y2="326.792"/>
				<line style="fill:none;stroke:#263238;stroke-miterlimit:10;" x1="236.493" y1="326.792" x2="280.25" y2="326.792"/>
				<line style="fill:none;stroke:#263238;stroke-miterlimit:10;" x1="159.333" y1="326.792" x2="231.816" y2="326.792"/>
				<line style="fill:none;stroke:#263238;stroke-miterlimit:10;" x1="99.938" y1="326.792" x2="154.323" y2="326.792"/>
				<line style="fill:none;stroke:#263238;stroke-miterlimit:10;" x1="108.896" y1="334.14" x2="182.047" y2="334.14"/>
				<line style="fill:none;stroke:#263238;stroke-miterlimit:10;" x1="99.938" y1="334.14" x2="105.89" y2="334.14"/>
			</g>
		</g>
		
			<rect x="294.604" y="157.848" style="fill:#FFFFFF;stroke:#263238;stroke-linecap:round;stroke-linejoin:round;stroke-miterlimit:10;" width="39.333" height="12"/>
		
			<rect x="341.938" y="157.848" style="fill:#FFFFFF;stroke:#263238;stroke-linecap:round;stroke-linejoin:round;stroke-miterlimit:10;" width="39.333" height="12"/>
		<g>
			<path style="fill:#263238;" d="M105.809,220.798l-0.425,2.218h-1.133l2.108-11.012h1.777l2.108,11.012h-1.227l-0.425-2.218
				H105.809z M105.967,219.743h2.454l-1.243-6.355L105.967,219.743z"/>
			<path style="fill:#263238;" d="M113.673,212.004c1.715,0,2.391,0.818,2.391,2.438v0.519c0,1.164-0.33,1.888-1.29,2.186
				c1.07,0.299,1.479,1.148,1.479,2.36v0.928c0,1.652-0.802,2.58-2.517,2.58h-2.533v-11.012H113.673z M113.374,216.676
				c0.975,0,1.479-0.315,1.479-1.463v-0.645c0-0.975-0.331-1.448-1.211-1.448h-1.211v3.556H113.374z M113.736,221.899
				c0.896,0,1.306-0.472,1.306-1.494v-0.976c0-1.227-0.488-1.636-1.541-1.636h-1.07v4.106H113.736z"/>
			<path style="fill:#263238;" d="M117.274,214.662c0-1.684,0.834-2.769,2.517-2.769c1.699,0,2.533,1.085,2.533,2.769v5.695
				c0,1.667-0.834,2.769-2.533,2.769c-1.683,0-2.517-1.102-2.517-2.769V214.662z M118.485,220.42c0,1.007,0.425,1.589,1.306,1.589
				c0.897,0,1.306-0.582,1.306-1.589v-5.821c0-0.991-0.409-1.589-1.306-1.589c-0.881,0-1.306,0.598-1.306,1.589V220.42z"/>
			<path style="fill:#263238;" d="M124.65,220.42c0,0.991,0.393,1.589,1.29,1.589c0.881,0,1.274-0.598,1.274-1.589v-8.417h1.148
				v8.354c0,1.667-0.771,2.785-2.47,2.785c-1.683,0-2.454-1.117-2.454-2.785v-8.354h1.211V220.42z"/>
			<path style="fill:#263238;" d="M131.161,223.016v-9.895h-2.029v-1.117h5.27v1.117h-2.029v9.895H131.161z"/>
		</g>
		<g>
			<path style="fill:#263238;" d="M302.719,165.154c0,0.504,0.199,0.808,0.655,0.808c0.447,0,0.648-0.304,0.648-0.808v-4.277h0.584
				v4.246c0,0.847-0.392,1.415-1.256,1.415c-0.855,0-1.247-0.568-1.247-1.415v-4.246h0.616V165.154z"/>
			<path style="fill:#263238;" d="M305.774,166.473h-0.56v-5.597h0.791l1.295,4.045v-4.045h0.552v5.597h-0.647l-1.431-4.525V166.473
				z"/>
			<path style="fill:#263238;" d="M310.405,163.483v0.567h-1.287v2.423h-0.623v-5.597h2.223v0.567h-1.6v2.039H310.405z"/>
			<path style="fill:#263238;" d="M311.166,162.227c0-0.855,0.424-1.407,1.279-1.407c0.864,0,1.288,0.552,1.288,1.407v2.895
				c0,0.847-0.424,1.407-1.288,1.407c-0.855,0-1.279-0.56-1.279-1.407V162.227z M311.782,165.154c0,0.512,0.216,0.808,0.663,0.808
				c0.456,0,0.664-0.296,0.664-0.808v-2.958c0-0.503-0.208-0.807-0.664-0.807c-0.447,0-0.663,0.304-0.663,0.807V165.154z"/>
			<path style="fill:#263238;" d="M314.327,166.473v-5.597h0.623v5.029h1.6v0.568H314.327z"/>
			<path style="fill:#263238;" d="M317.022,166.473v-5.597h0.623v5.029h1.6v0.568H317.022z"/>
			<path style="fill:#263238;" d="M319.67,162.227c0-0.855,0.424-1.407,1.279-1.407c0.864,0,1.288,0.552,1.288,1.407v2.895
				c0,0.847-0.424,1.407-1.288,1.407c-0.855,0-1.279-0.56-1.279-1.407V162.227z M320.286,165.154c0,0.512,0.216,0.808,0.663,0.808
				c0.456,0,0.664-0.296,0.664-0.808v-2.958c0-0.503-0.208-0.807-0.664-0.807c-0.447,0-0.663,0.304-0.663,0.807V165.154z"/>
			<path style="fill:#263238;" d="M324.317,166.473h-0.855l-0.768-5.597h0.608l0.655,4.765l0.624-4.757h0.615l0.615,4.765
				l0.632-4.773h0.544l-0.76,5.597h-0.823l-0.536-3.798L324.317,166.473z"/>
		</g>
		<g>
			<path style="fill:#263238;" d="M357.392,166.465h-0.6l-0.928-4.454v4.461h-0.544v-5.597h0.872l0.919,4.469l0.888-4.469h0.871
				v5.597h-0.592v-4.501L357.392,166.465z"/>
			<path style="fill:#263238;" d="M359.466,162.227c0-0.855,0.424-1.407,1.279-1.407c0.863,0,1.287,0.552,1.287,1.407v2.895
				c0,0.847-0.424,1.407-1.287,1.407c-0.855,0-1.279-0.56-1.279-1.407V162.227z M360.081,165.154c0,0.512,0.216,0.808,0.664,0.808
				c0.455,0,0.663-0.296,0.663-0.808v-2.958c0-0.503-0.208-0.807-0.663-0.807c-0.448,0-0.664,0.304-0.664,0.807V165.154z"/>
			<path style="fill:#263238;" d="M363.873,160.876c0.879,0,1.247,0.447,1.247,1.279v0.456c0,0.616-0.216,1-0.695,1.151
				c0.512,0.152,0.703,0.568,0.703,1.167v0.871c0,0.248,0.008,0.48,0.112,0.672h-0.632c-0.072-0.16-0.103-0.304-0.103-0.68v-0.879
				c0-0.632-0.296-0.832-0.816-0.832h-0.44v2.391h-0.623v-5.597H363.873z M363.713,163.514c0.496,0,0.792-0.16,0.792-0.768v-0.536
				c0-0.504-0.185-0.768-0.648-0.768h-0.607v2.071H363.713z"/>
			<path style="fill:#263238;" d="M367.768,163.355v0.559h-1.367v1.991h1.68v0.568h-2.303v-5.597h2.303v0.567h-1.68v1.911H367.768z"
				/>
			<path style="fill:#263238;" d="M369.258,165.697v0.775h-0.601v-0.775H369.258z"/>
			<path style="fill:#263238;" d="M370.497,165.697v0.775h-0.6v-0.775H370.497z"/>
			<path style="fill:#263238;" d="M371.737,165.697v0.775h-0.6v-0.775H371.737z"/>
		</g>
		<g>
			<rect x="293.91" y="175.515" style="fill:none;stroke:#263238;stroke-miterlimit:10;" width="8" height="8"/>
			<line style="fill:none;stroke:#263238;stroke-miterlimit:10;" x1="305.91" y1="180.848" x2="344.577" y2="180.848"/>
			<rect x="293.91" y="187.348" style="fill:none;stroke:#263238;stroke-miterlimit:10;" width="8" height="8"/>
			<line style="fill:none;stroke:#263238;stroke-miterlimit:10;" x1="305.91" y1="192.682" x2="344.577" y2="192.682"/>
		</g>
		
			<rect x="126.744" y="46.202" style="fill:#FFFFFF;stroke:#263238;stroke-linecap:round;stroke-linejoin:round;stroke-miterlimit:10;" width="151.826" height="9.609"/>
	</g>
</g>
<g id="Character">
	<g>
		<g>
			<g>
				<path style="fill:#FFFFFF;stroke:#263238;stroke-linecap:round;stroke-linejoin:round;stroke-miterlimit:10;" d="
					M371.846,392.545l10.451,68.597c0.149,1.051-0.624,2.009-1.683,2.085l0,0c-0.886,0.063-1.689-0.518-1.907-1.378l-17.828-69.303
					H371.846z"/>
				<path style="fill:#FFFFFF;stroke:#263238;stroke-linecap:round;stroke-linejoin:round;stroke-miterlimit:10;" d="
					M376.682,396.284l-9.196,64.858c-0.149,1.051,0.624,2.009,1.683,2.085l0,0c0.886,0.063,1.689-0.518,1.907-1.378l16.574-65.565
					H376.682z"/>
				<path style="fill:#FFFFFF;stroke:#263238;stroke-linecap:round;stroke-linejoin:round;stroke-miterlimit:10;" d="
					M332.562,396.284l-9.196,64.858c-0.149,1.051,0.624,2.009,1.683,2.085l0,0c0.886,0.063,1.689-0.518,1.907-1.378l16.574-65.565
					H332.562z"/>
				<path style="fill:#FFFFFF;stroke:#263238;stroke-linecap:round;stroke-linejoin:round;stroke-miterlimit:10;" d="
					M419.306,392.545l10.451,68.597c0.149,1.051-0.624,2.009-1.683,2.085l0,0c-0.886,0.063-1.689-0.518-1.907-1.378l-17.828-69.303
					H419.306z"/>
			</g>
			<path style="fill:#FFFFFF;stroke:#263238;stroke-linecap:round;stroke-linejoin:round;stroke-miterlimit:10;" d="
				M344.277,398.278c0,0,57.58,2.742,70.293-0.997c12.712-3.739,12.712-7.977,16.451-15.953c3.739-7.976,20.44-68.548,22.434-82.257
				c1.994-13.71-15.953-10.968-20.689-9.971c-4.736,0.997-11.715,2.243-17.448,1.745s-11.217-4.237-19.692-4.237
				c-8.475,0-11.466,10.968-15.205,25.176c-3.739,14.208-12.463,30.41-17.698,33.9c-5.235,3.49-42.624,4.736-48.357,11.217
				s-3.49,16.452,2.742,25.923c6.232,9.472,12.712,14.457,17.698,14.956C339.79,398.278,344.277,398.278,344.277,398.278z"/>
		</g>
		<g>
			<path style="fill:#FFFFFF;stroke:#263238;stroke-linecap:round;stroke-linejoin:round;stroke-miterlimit:10;" d="
				M315.362,447.882c0,0-7.977,4.985-12.712,7.976c-4.736,2.991-8.226,3.739-8.226,5.484c0,1.745,1.994,2.493,4.487,2.742
				c2.493,0.249,25.674,0.249,30.161,0.249c4.487,0,5.484-1.496,5.982-2.991c0.499-1.496-0.748-8.226-0.748-8.226
				S319.6,450.873,315.362,447.882z"/>
			<path style="fill:#FFFFFF;stroke:#263238;stroke-linecap:round;stroke-linejoin:round;stroke-miterlimit:10;" d="
				M321.594,462.838c-11.253,0.97-22.654-0.778-27.156-1.6c-0.003,0.035-0.013,0.069-0.013,0.105c0,1.745,1.994,2.493,4.487,2.742
				c2.493,0.249,25.674,0.249,30.161,0.249c4.487,0,5.484-1.496,5.982-2.991c0.039-0.117,0.064-0.275,0.083-0.45
				C332.278,461.55,327.947,462.29,321.594,462.838z"/>
		</g>
		<path style="fill:#263238;stroke:#263238;stroke-linecap:round;stroke-linejoin:round;stroke-miterlimit:10;" d="M355.415,349.304
			l-3.118-1.467l-1.65,2.017c0,0-10.086-16.688-18.155-21.272c-8.069-4.585-17.971,0.183-17.605,7.885
			c0.367,7.702,14.854,35.759,14.854,35.759s-22.923,9.903-23.106,12.837c-0.183,2.934,10.82,58.315,10.82,58.315
			s-3.301-0.733-3.301,1.1s-0.55,5.501-0.55,5.501s3.484,3.301,8.435,4.951c4.951,1.65,12.287,0.367,12.287,0.367
			s0.183-2.751,0.183-4.218c0-1.467-1.65-5.501-1.65-5.501l-0.183-53.181c0,0,57.765-3.851,64-9.169
			c6.235-5.318,8.802-23.473,8.802-23.473s-13.204,3.484-27.324-2.384s-19.805-9.536-19.805-9.536L355.415,349.304z"/>
		<g>
			<path style="fill:#92E3A9;stroke:#263238;stroke-linecap:round;stroke-linejoin:round;stroke-miterlimit:10;" d="
				M394.659,291.172c0,0-17.421,4.218-20.539,4.951c-3.117,0.734-4.768,1.1-4.951,2.934c-0.183,1.834-14.304,24.39-16.688,27.874
				c-2.384,3.484-5.685,6.418-3.668,8.986c2.017,2.567,2.751,6.418,5.501,6.418c2.751,0,6.235-4.401,6.235-4.401
				s-6.418,8.986-5.135,11.37c1.284,2.384,13.754,11.186,28.424,13.57c14.671,2.384,20.355-0.55,21.822-1.467
				c1.467-0.917,11.737-27.691,14.487-38.877c2.751-11.186,8.252-22.923,6.418-24.94c-1.834-2.017-12.287-5.501-15.221-6.052
				c-2.934-0.55-4.768-0.733-4.768-0.733L394.659,291.172z"/>
			<path style="fill:#FFFFFF;stroke:#263238;stroke-linecap:round;stroke-linejoin:round;stroke-miterlimit:10;" d="
				M358.731,339.677c0,0,2.847-6.405,0.237-9.964c-2.61-3.559-7.354-2.847-10.913-0.475c-3.559,2.372-4.745,3.796-4.508,6.643
				c0.237,2.847,3.321,8.303,7.829,8.303S357.545,342.286,358.731,339.677z"/>
			<path style="fill:none;stroke:#263238;stroke-linecap:round;stroke-linejoin:round;stroke-miterlimit:10;" d="M360.55,337.934
				c0,0,6.602-16.504,8.986-21.089c2.384-4.585,3.301-9.719,3.301-9.719"/>
			<g>
				<path style="fill:none;stroke:#263238;stroke-linecap:round;stroke-linejoin:round;stroke-miterlimit:10;" d="M372.32,345.572
					c-2.745,2.121-7.252,5.319-6.452,7.4c0.917,2.384,2.017,4.585,2.017,4.585"/>
				<path style="fill:none;stroke:#263238;stroke-linecap:round;stroke-linejoin:round;stroke-miterlimit:10;" d="M387.363,316.421
					c-1.848,4.631-3.878,9.811-4.074,10.693c-0.334,1.504-6.304,13.212-9.164,16.804"/>
				<path style="fill:none;stroke:#263238;stroke-linecap:round;stroke-linejoin:round;stroke-miterlimit:10;" d="M390.441,308.776
					c0,0-0.818,2.011-1.9,4.705"/>
			</g>
			
				<line style="fill:none;stroke:#263238;stroke-linecap:round;stroke-linejoin:round;stroke-miterlimit:10;" x1="414.464" y1="324.547" x2="408.779" y2="310.793"/>
			
				<line style="fill:none;stroke:#263238;stroke-linecap:round;stroke-linejoin:round;stroke-miterlimit:10;" x1="414.464" y1="326.931" x2="404.928" y2="317.579"/>
		</g>
		<path style="fill:#FFFFFF;stroke:#263238;stroke-linecap:round;stroke-linejoin:round;stroke-miterlimit:10;" d="M355.965,326.931
			c0,0-12.653,6.602-13.02,10.086c-0.367,3.484,1.65,6.052,5.685,6.969c4.034,0.917,6.235-2.567,7.885-5.135
			c1.65-2.567,4.768-7.519,4.768-7.519L355.965,326.931z"/>
		<polygon style="fill:#FFFFFF;stroke:#263238;stroke-linecap:round;stroke-linejoin:round;stroke-miterlimit:10;" points="
			390.441,294.289 382.555,306.392 388.24,303.091 390.991,306.759 393.008,291.905 		"/>
		<g>
			<path style="fill:#FFFFFF;stroke:#263238;stroke-linecap:round;stroke-linejoin:round;stroke-miterlimit:10;" d="M375.77,263.664
				c0,0-0.367,14.486,1.65,20.171c1.909,5.38,5.408,17.22,13.02,10.454l0.55,12.47l4.218-6.418l10.819-10.269l-0.733-10.453
				l0.183-11.003c0,0,0.55-8.069-3.668-11.37c-4.218-3.301-18.705,0.183-22.373,1.834C375.77,260.73,375.77,263.664,375.77,263.664z
				"/>
			<polyline style="fill:none;stroke:#263238;stroke-linecap:round;stroke-linejoin:round;stroke-miterlimit:10;" points="
				381.639,277.785 381.455,286.954 384.939,286.587 			"/>
			<path style="fill:none;stroke:#263238;stroke-linecap:round;stroke-linejoin:round;stroke-miterlimit:10;" d="M382.922,288.421
				c0,0,3.117,3.117,7.335-2.017"/>
			<polygon style="fill:#263238;stroke:#263238;stroke-linecap:round;stroke-linejoin:round;stroke-miterlimit:10;" points="
				390.441,294.289 395.209,289.705 390.991,302.541 			"/>
			<path style="fill:none;stroke:#263238;stroke-linecap:round;stroke-linejoin:round;stroke-miterlimit:10;" d="M388.79,277.601
				c0,0,2.934,2.567,5.318-0.183"/>
			<path style="fill:none;stroke:#263238;stroke-linecap:round;stroke-linejoin:round;stroke-miterlimit:10;" d="M377.421,277.601
				c0,0,1.467,1.65,3.301,0.367"/>
			<path style="fill:none;stroke:#263238;stroke-linecap:round;stroke-linejoin:round;stroke-miterlimit:10;" d="M395.576,275.584
				c0,0-3.301-1.1-6.785-0.917c-3.484,0.183-3.484,3.484-2.751,4.951c0.738,1.476,2.934,2.751,6.235,2.384
				c3.301-0.367,3.668-4.218,3.668-4.218S396.492,276.134,395.576,275.584z"/>
			<path style="fill:none;stroke:#263238;stroke-linecap:round;stroke-linejoin:round;stroke-miterlimit:10;" d="M385.49,276.501
				c0,0-2.017-1.467-3.851-0.183"/>
			<path style="fill:none;stroke:#263238;stroke-linecap:round;stroke-linejoin:round;stroke-miterlimit:10;" d="M381.639,275.401
				c0,0-0.55-1.1-4.034-0.917c-3.484,0.183-3.851,1.834-3.301,3.301c0.55,1.467,2.017,5.868,6.969,3.484"/>
			<path style="fill:none;stroke:#263238;stroke-linecap:round;stroke-linejoin:round;stroke-miterlimit:10;" d="M386.957,273.934
				c0,0,1.834-1.1,5.868,0"/>
			<path style="fill:none;stroke:#263238;stroke-linecap:round;stroke-linejoin:round;stroke-miterlimit:10;" d="M381.455,273.934
				c0,0-2.384-1.284-4.585-0.55"/>
			
				<line style="fill:none;stroke:#263238;stroke-linecap:round;stroke-linejoin:round;stroke-miterlimit:10;" x1="395.576" y1="275.584" x2="403.278" y2="271.733"/>
			<path style="fill:#263238;stroke:#263238;stroke-linecap:round;stroke-linejoin:round;stroke-miterlimit:10;" d="M372.35,257.85
				c-1.135,2.64-0.69,5.101,3.237,6.547c6.968,2.567,9.719-0.183,15.221-1.834c5.502-1.65,8.619-0.55,6.235,1.834
				c-2.384,2.384-1.65,4.951,0.55,5.318c2.201,0.367,0,6.235,1.834,5.501c1.834-0.734,3.484-3.117,5.318-2.751
				c1.834,0.367,2.017-0.734,2.017-0.734s5.685-10.269,4.034-16.321c-1.65-6.052-12.837-10.453-21.823-8.252
				c-4.948,1.212-10.848,2.936-14.239,7.013C373.728,255.383,372.872,256.636,372.35,257.85z"/>
			<path style="fill:#FFFFFF;stroke:#263238;stroke-linecap:round;stroke-linejoin:round;stroke-miterlimit:10;" d="
				M401.994,275.584c0,0-1.1-5.135,2.934-5.685c4.034-0.55,2.934,3.851,1.65,6.785c-1.284,2.934-3.668,3.117-3.668,3.117"/>
		</g>
		<polygon style="fill:#FFFFFF;stroke:#263238;stroke-linecap:round;stroke-linejoin:round;stroke-miterlimit:10;" points="
			407.862,287.137 393.558,301.258 397.96,308.226 411.346,291.538 		"/>
		<path style="fill:#92E3A9;stroke:#263238;stroke-linecap:round;stroke-linejoin:round;stroke-miterlimit:10;" d="M415.748,311.894
			l-3.933,33.093c0,0-1.568,1.382,3.933,3.95c5.501,2.567,8.498,2.154,9.415,0.87c0.917-1.284,7.416-19.281,6.172-41.031
			c-0.408-7.14,0.734-8.802-1.834-10.636c-2.567-1.834-8.802-2.384-8.802-2.384"/>
		<path style="fill:#FFFFFF;stroke:#263238;stroke-linecap:round;stroke-linejoin:round;stroke-miterlimit:10;" d="M412.263,342.152
			c0,0,2.017-2.567,2.934-2.567s5.502,2.751,7.702,3.668c2.201,0.917,2.751,6.052,2.751,8.802c0,2.751-3.484,6.969-5.868,7.335
			c-2.384,0.367-11.186-3.668-11.553-4.401C407.862,354.255,412.263,342.152,412.263,342.152z"/>
		<polygon style="fill:#263238;stroke:#263238;stroke-linecap:round;stroke-linejoin:round;stroke-miterlimit:10;" points="
			373.57,335.367 363.3,317.029 352.481,315.195 363.3,334.083 		"/>
		<path style="fill:#FFFFFF;stroke:#263238;stroke-linecap:round;stroke-linejoin:round;stroke-miterlimit:10;" d="M357.065,323.263
			c0,0-3.484,1.65-3.117,2.201c0.367,0.55,0.367,1.1,0.367,1.1s5.685,6.418,6.602,7.519c0.917,1.1,3.301,0.367,4.768,0.183
			c1.467-0.183,1.467-3.484,0.733-4.768c-0.733-1.284-5.685-4.401-6.235-4.585c-0.55-0.183,0,1.284,0-1.1
			C360.183,321.43,357.065,323.263,357.065,323.263z"/>
		<g>
			<path style="fill:#FFFFFF;stroke:#263238;stroke-linecap:round;stroke-linejoin:round;stroke-miterlimit:10;" d="
				M420.059,346.299c-0.245-1.817-1.543-3.311-3.299-3.834c-6.885-2.052-25.041-7.523-28.887-9.298
				c-4.768-2.201-8.986-4.951-8.986-4.951s-3.117-4.951-3.668-5.135c-0.55-0.183-4.034,0.917-5.135,0.917
				c-1.1,0-3.484-0.55-3.484-0.55l2.934,3.301c0,0-8.069-2.934-9.353-2.934c-1.284,0-2.017,0-1.284,1.467
				c0.733,1.467,1.65,1.467,3.117,2.017c1.467,0.55,4.401,2.201,4.401,2.201s-5.501-0.917-6.785-1.1
				c-1.284-0.183-2.934-0.55-2.934,0.183c0,0.733,2.017,2.017,2.934,2.384c0.917,0.367,4.218,2.017,4.218,2.017
				s-4.585-1.284-4.585-0.55c0,0.734,1.284,2.201,2.567,2.751c1.284,0.55,4.768,2.751,5.868,3.484
				c1.1,0.733,9.903,0.367,9.903,0.367s14.671,6.602,21.272,10.269c6.602,3.668,14.304,7.702,16.504,7.702s4.401-3.668,4.768-6.969
				C420.292,348.746,420.211,347.427,420.059,346.299z"/>
			
				<line style="fill:none;stroke:#263238;stroke-linecap:round;stroke-linejoin:round;stroke-miterlimit:10;" x1="361.833" y1="335.183" x2="368.068" y2="336.834"/>
			
				<line style="fill:none;stroke:#263238;stroke-linecap:round;stroke-linejoin:round;stroke-miterlimit:10;" x1="369.535" y1="326.748" x2="373.753" y2="327.848"/>
		</g>
		<path style="fill:#263238;stroke:#263238;stroke-linecap:round;stroke-linejoin:round;stroke-miterlimit:10;" d="M331.942,335.917
			c0,0,8.619,30.441,11.003,36.676c2.384,6.235,3.117,11.003,4.218,11.553c1.1,0.55,1.651,0.367,1.651,2.017
			c0,1.65-1.1,3.668-1.1,4.218c0,0.55,0.917,4.218,0.917,4.218s-5.501,0.55-13.57-2.017c-8.069-2.567-10.453-3.301-10.82-4.768
			c-0.367-1.467-2.201-2.567-0.733-3.851c1.467-1.284-0.917-3.117-1.834-6.602c-0.917-3.484-8.069-23.289-9.169-31.358
			s-0.55-15.221,3.484-18.705c4.034-3.484,8.619-2.017,10.636-1.467c2.017,0.55,5.135,2.567,5.135,2.567"/>
		<g>
			<path style="fill:none;stroke:#6B6B6B;stroke-linecap:round;stroke-linejoin:round;stroke-miterlimit:10;" d="M367.723,362.402
				c0.918-0.181,1.773-0.332,2.545-0.445"/>
			<path style="fill:none;stroke:#6B6B6B;stroke-linecap:round;stroke-linejoin:round;stroke-miterlimit:10;" d="M341.845,369.476
				c0,0,13.641-4.335,23.278-6.52"/>
			<path style="fill:none;stroke:#6B6B6B;stroke-linecap:round;stroke-linejoin:round;stroke-miterlimit:10;" d="M355.048,365.625
				c0,0-3.301-9.169-3.851-12.47"/>
			
				<line style="fill:none;stroke:#6B6B6B;stroke-linecap:round;stroke-linejoin:round;stroke-miterlimit:10;" x1="336.702" y1="342.638" x2="336.059" y2="339.187"/>
			
				<line style="fill:none;stroke:#6B6B6B;stroke-linecap:round;stroke-linejoin:round;stroke-miterlimit:10;" x1="343.323" y1="378.169" x2="337.241" y2="345.533"/>
		</g>
		<g>
			<path style="fill:#FFFFFF;stroke:#263238;stroke-linecap:round;stroke-linejoin:round;stroke-miterlimit:10;" d="
				M341.111,391.665c0,0-1.834-1.834-4.401-4.401c-2.567-2.567-8.069-0.367-9.352,0.917c-1.284,1.284,0.183,1.65-4.951,1.65
				c-5.135,0-11.003,0.183-11.553,2.201c-0.55,2.017,0.917,4.585,4.951,7.335c4.034,2.751,13.203,5.501,18.522,5.501
				c5.318,0,14.671,0,15.037-4.034c0.367-4.034,0.183-8.252-1.467-8.619C346.246,391.848,341.111,391.665,341.111,391.665z"/>
			<path style="fill:#FFFFFF;stroke:#263238;stroke-linecap:round;stroke-linejoin:round;stroke-miterlimit:10;" d="
				M349.363,400.834c0.04-0.438,0.072-0.878,0.097-1.316c-1.108-0.139-5.528-0.763-9.817-2.352
				c-4.951-1.834-13.937-6.602-21.639-6.969c-3.06-0.146-5.066,0.319-6.387,0.929c-0.397,0.251-0.668,0.548-0.765,0.905
				c-0.55,2.017,0.917,4.585,4.951,7.335c4.034,2.751,13.203,5.501,18.522,5.501C339.644,404.868,348.997,404.868,349.363,400.834z"
				/>
			<path style="fill:#FFFFFF;stroke:#263238;stroke-linecap:round;stroke-linejoin:round;stroke-miterlimit:10;" d="
				M310.833,393.662c0.378,1.697,1.958,3.65,4.972,5.705c4.034,2.751,13.203,5.501,18.522,5.501c4.83,0,12.986-0.001,14.718-3.023
				c-1.853-0.289-4.674-0.858-7.566-1.929c-4.951-1.834-14.12-6.969-23.656-7.335C313.568,392.418,311.653,392.985,310.833,393.662z
				"/>
		</g>
		<g>
			<path style="fill:#FFFFFF;stroke:#263238;stroke-linecap:round;stroke-linejoin:round;stroke-miterlimit:10;" d="
				M376.171,399.201c15.565,0.182,32.242-0.109,38.398-1.92c12.712-3.739,12.712-7.977,16.451-15.953
				c3.739-7.977,20.44-68.548,22.434-82.257c0.263-1.812,0.171-3.329-0.186-4.609c-0.741,1.041-1.593,5.436-2.805,9.594
				c-1.745,5.982-6.481,22.185-6.481,22.185s-7.478,24.428-17.449,31.158c-9.971,6.73-25.923,0.499-31.657,2.991
				c-5.733,2.493-18.695,38.636-18.695,38.636L376.171,399.201z"/>
			<path style="fill:none;stroke:#263238;stroke-linecap:round;stroke-linejoin:round;stroke-miterlimit:10;" d="M379.673,399.026
				c0,0,11.466-30.66,16.701-33.9c5.235-3.24,17.199,2.493,25.924-1.246c8.724-3.739,16.701-14.208,20.19-26.422"/>
		</g>
	</g>
</g>
<g id="Floor">
	<g>
		<line style="fill:none;stroke:#263238;stroke-miterlimit:10;" x1="456.844" y1="462.234" x2="479.485" y2="462.234"/>
		<line style="fill:none;stroke:#263238;stroke-miterlimit:10;" x1="134.472" y1="462.234" x2="449.296" y2="462.234"/>
		<line style="fill:none;stroke:#263238;stroke-miterlimit:10;" x1="32.046" y1="462.234" x2="128.003" y2="462.234"/>
	</g>
</g>
</svg>
