<svg xmlns="http://www.w3.org/2000/svg" aria-hidden="true" data-name="Layer 1" viewBox="0 0 24 24" role="img"><path fill="none" vector-effect="non-scaling-stroke" stroke="var(--icon-color, #001e00)" stroke-linecap="round" stroke-linejoin="round" stroke-width="1.364" d="M7.63 17.2v2.9a.88.88 0 00.9.9h6.81a.88.88 0 00.9-.9v-1.29h2.19a.88.88 0 00.9-.9v-3.34h1.16c.51 0 .64-.38.38-.77l-1.67-3v-1a6.6 6.6 0 00-3.68-6.1"></path><path fill="none" vector-effect="non-scaling-stroke" stroke="var(--icon-color, #001e00)" stroke-linecap="round" stroke-linejoin="round" stroke-width="1.5" d="M8.5 10.22A1.5 1.5 0 107 8.72a1.5 1.5 0 001.5 1.5z"></path><path fill="none" vector-effect="non-scaling-stroke" stroke="var(--icon-color, #001e00)" stroke-linecap="round" stroke-linejoin="round" stroke-width="1.5" d="M12.49 9.12v-.79L14 7.05a5.75 5.75 0 00-1.39-2.34l-1.85.7a4.48 4.48 0 00-.56-.32h0l-.33-1.92a5.53 5.53 0 00-2.74 0L6.8 5.09a4.48 4.48 0 00-.56.32l-1.85-.7A5.75 5.75 0 003 7.05l1.51 1.28a3.39 3.39 0 000 .78L3 10.38a5.79 5.79 0 001.39 2.35L6.24 12a6.22 6.22 0 00.56.32l.33 1.91a5.53 5.53 0 002.74 0l.33-1.91a6.22 6.22 0 00.56-.32l1.85.7A5.79 5.79 0 0014 10.38l-1.51-1.27z"></path></svg>