<?xml version="1.0" encoding="utf-8"?>
<!-- Generator: Adobe Illustrator 27.5.0, SVG Export Plug-In . SVG Version: 6.00 Build 0)  -->
<svg version="1.1" xmlns="http://www.w3.org/2000/svg" xmlns:xlink="http://www.w3.org/1999/xlink" x="0px" y="0px"
	 viewBox="0 0 500 500" style="enable-background:new 0 0 500 500;" xml:space="preserve">
<g id="Background_Simple">
	<g>
		<path style="fill:#92E3A9;" d="M479.578,213.153c-1.012-6.192-2.185-12.269-3.487-18.191
			C465.491,146.771,441.03,95.639,393,76.178c-55.221-22.375-133.602-16.148-183,27.534c-38,33.603-114.999,53.876-158,104.822
			C7.431,261.338-1.884,360.312,56,400.26c41.166,28.41,92.071,5.986,137.917-3.39c26.115-5.341,48.708-2.319,74.449-0.018
			c44.73,3.998,91.06,7.033,136.174-3.025c22.283-4.965,42.087-14.052,54.648-34.719
			C485.568,315.704,487.393,260.985,479.578,213.153z"/>
		<path style="opacity:0.7;fill:#FFFFFF;" d="M479.578,213.153c-1.012-6.192-2.185-12.269-3.487-18.191
			C465.491,146.771,441.03,95.639,393,76.178c-55.221-22.375-133.602-16.148-183,27.534c-38,33.603-114.999,53.876-158,104.822
			C7.431,261.338-1.884,360.312,56,400.26c41.166,28.41,92.071,5.986,137.917-3.39c26.115-5.341,48.708-2.319,74.449-0.018
			c44.73,3.998,91.06,7.033,136.174-3.025c22.283-4.965,42.087-14.052,54.648-34.719
			C485.568,315.704,487.393,260.985,479.578,213.153z"/>
	</g>
</g>
<g id="Graphics">
	<g>
		<path style="fill:none;stroke:#263238;stroke-miterlimit:10;" d="M49,323h54c3.314,0,6,2.686,6,6l0,0c0,3.314-2.686,6-6,6H42
			c-3.314,0-6-2.686-6-6l0,0c0-3.314,2.686-6,6-6h1.5"/>
		<path style="fill:none;stroke:#263238;stroke-miterlimit:10;" d="M91,342.853h12c3.314,0,6,2.686,6,6v0c0,3.314-2.686,6-6,6H42
			c-3.314,0-6-2.686-6-6v0c0-3.314,2.686-6,6-6h43.5"/>
		<path style="fill:none;stroke:#263238;stroke-miterlimit:10;" d="M103,374.705H42c-3.314,0-6-2.686-6-6l0,0c0-3.314,2.686-6,6-6
			h61c3.314,0,6,2.686,6,6l0,0C109,372.019,106.314,374.705,103,374.705z"/>
		<polyline style="fill:none;stroke:#263238;stroke-miterlimit:10;" points="85.5,303 116,303 116,385.5 75.5,385.5 		"/>
		<polyline style="fill:none;stroke:#263238;stroke-miterlimit:10;" points="42.5,385.5 29.5,385.5 29.5,303 78.5,303 		"/>
		<line style="fill:none;stroke:#263238;stroke-miterlimit:10;" x1="68.5" y1="385.5" x2="47.5" y2="385.5"/>
		<line style="fill:none;stroke:#263238;stroke-miterlimit:10;" x1="34" y1="315" x2="111" y2="315"/>
	</g>
	<g>
		<path style="fill:none;stroke:#263238;stroke-miterlimit:10;" d="M125,54.147h54c3.314,0,6,2.686,6,6l0,0c0,3.314-2.686,6-6,6h-61
			c-3.314,0-6-2.686-6-6l0,0c0-3.314,2.686-6,6-6h1.5"/>
		<path style="fill:none;stroke:#263238;stroke-miterlimit:10;" d="M167,74h12c3.314,0,6,2.686,6,6l0,0c0,3.314-2.686,6-6,6h-61
			c-3.314,0-6-2.686-6-6l0,0c0-3.314,2.686-6,6-6h43.5"/>
		<path style="fill:none;stroke:#263238;stroke-miterlimit:10;" d="M179,105.853h-61c-3.314,0-6-2.686-6-6v0c0-3.314,2.686-6,6-6h61
			c3.314,0,6,2.686,6,6v0C185,103.166,182.314,105.853,179,105.853z"/>
		<polyline style="fill:none;stroke:#263238;stroke-miterlimit:10;" points="161.5,34.147 192,34.147 192,116.647 151.5,116.647 		
			"/>
		<polyline style="fill:none;stroke:#263238;stroke-miterlimit:10;" points="118.5,116.647 105.5,116.647 105.5,34.147 
			154.5,34.147 		"/>
		<line style="fill:none;stroke:#263238;stroke-miterlimit:10;" x1="144.5" y1="116.647" x2="123.5" y2="116.647"/>
		<line style="fill:none;stroke:#263238;stroke-miterlimit:10;" x1="110" y1="46.147" x2="187" y2="46.147"/>
	</g>
	<g>
		<path style="fill:none;stroke:#263238;stroke-miterlimit:10;" d="M376.047,73.332h-31.523c-1.333,0-2.413-1.08-2.413-2.413v-9.161
			c0-1.333,1.08-2.413,2.413-2.413h42.243c1.333,0,2.413,1.08,2.413,2.413v3.596"/>
		<path style="fill:none;stroke:#263238;stroke-miterlimit:10;" d="M375.753,88.234V68.638c0-1.733,1.405-3.138,3.138-3.138h41.836
			c1.733,0,3.138,1.405,3.138,3.138v23.466"/>
		<path style="fill:none;stroke:#263238;stroke-miterlimit:10;" d="M423.866,111.424v24.438c0,1.733-1.405,3.138-3.138,3.138
			h-41.836c-1.733,0-3.138-1.405-3.138-3.138V92.934"/>
		<line style="fill:none;stroke:#263238;stroke-miterlimit:10;" x1="378.723" y1="76.951" x2="420.871" y2="76.951"/>
		<line style="fill:none;stroke:#263238;stroke-miterlimit:10;" x1="398.857" y1="89.662" x2="420.871" y2="89.662"/>
		<line style="fill:none;stroke:#263238;stroke-miterlimit:10;" x1="378.723" y1="89.662" x2="395.423" y2="89.662"/>
		<line style="fill:none;stroke:#263238;stroke-miterlimit:10;" x1="378.723" y1="102.373" x2="420.871" y2="102.373"/>
		<line style="fill:none;stroke:#263238;stroke-miterlimit:10;" x1="413.318" y1="115.085" x2="420.871" y2="115.085"/>
		<line style="fill:none;stroke:#263238;stroke-miterlimit:10;" x1="378.723" y1="115.085" x2="409.522" y2="115.085"/>
		<line style="fill:none;stroke:#263238;stroke-miterlimit:10;" x1="378.723" y1="127.796" x2="420.871" y2="127.796"/>
		<line style="fill:none;stroke:#263238;stroke-miterlimit:10;" x1="350.625" y1="66.023" x2="373.594" y2="66.023"/>
	</g>
	<g>
		<g>
			<path style="fill:none;stroke:#263238;stroke-miterlimit:10;" d="M214.095,356.182h-43.457c-1.837,0-3.326-1.489-3.326-3.326
				v-12.628c0-1.837,1.489-3.326,3.326-3.326h58.235c1.837,0,3.326,1.489,3.326,3.326v4.957"/>
			<path style="fill:none;stroke:#263238;stroke-miterlimit:10;" d="M213.689,376.726v-27.014c0-2.389,1.937-4.327,4.327-4.327
				h57.674c2.389,0,4.327,1.937,4.327,4.327v32.349"/>
			<path style="fill:none;stroke:#263238;stroke-miterlimit:10;" d="M280.017,408.694v33.689c0,2.39-1.937,4.327-4.327,4.327
				h-57.674c-2.39,0-4.327-1.937-4.327-4.327v-59.178"/>
			<line style="fill:none;stroke:#263238;stroke-miterlimit:10;" x1="217.785" y1="361.17" x2="275.888" y2="361.17"/>
			<line style="fill:none;stroke:#263238;stroke-miterlimit:10;" x1="245.54" y1="378.694" x2="275.888" y2="378.694"/>
			<line style="fill:none;stroke:#263238;stroke-miterlimit:10;" x1="217.785" y1="378.694" x2="240.805" y2="378.694"/>
			<line style="fill:none;stroke:#263238;stroke-miterlimit:10;" x1="217.785" y1="396.217" x2="275.888" y2="396.217"/>
			<line style="fill:none;stroke:#263238;stroke-miterlimit:10;" x1="265.476" y1="413.741" x2="275.888" y2="413.741"/>
			<line style="fill:none;stroke:#263238;stroke-miterlimit:10;" x1="217.785" y1="413.741" x2="260.243" y2="413.741"/>
			<line style="fill:none;stroke:#263238;stroke-miterlimit:10;" x1="217.785" y1="431.264" x2="275.888" y2="431.264"/>
			<line style="fill:none;stroke:#263238;stroke-miterlimit:10;" x1="179.049" y1="346.107" x2="210.714" y2="346.107"/>
		</g>
		<g>
			<g>
				<path style="fill:#263238;" d="M288.655,410.435c-2.42,0-4.826-0.916-6.677-2.709l-6.187-6.138
					c-0.747-0.741-0.879-1.882-0.322-2.773c0.356-0.569,0.942-0.946,1.607-1.033c0.666-0.087,1.329,0.126,1.818,0.585l1.223,1.145
					l-6.223-12.815c-0.308-0.654-0.338-1.386-0.083-2.063c0.255-0.676,0.76-1.207,1.423-1.495c1.312-0.57,2.825-0.005,3.442,1.287
					l2.351,4.534c0.476-0.543,1.033-0.865,1.664-0.958c1.009-0.149,1.931,0.344,2.453,0.707c0.492-0.601,1.078-0.951,1.746-1.043
					c0.821-0.112,1.575,0.203,2.077,0.499c0.332-0.753,0.973-1.145,1.826-1.095c0.828,0.048,1.602,0.555,2.02,1.324l4.393,8.082
					c2.154,4.242,0.926,9.335-2.912,12.121C292.6,409.829,290.623,410.435,288.655,410.435z M277.368,398.762
					c-0.054,0-0.108,0.003-0.162,0.01c-0.368,0.048-0.693,0.256-0.889,0.571c-0.309,0.493-0.236,1.124,0.178,1.534l6.183,6.134
					c3.002,2.908,7.643,3.237,11.03,0.777c3.438-2.497,4.538-7.059,2.615-10.848l-4.387-8.07c-0.254-0.467-0.714-0.775-1.2-0.803
					c-0.409-0.023-0.846,0.075-0.989,0.988l-0.143,0.915l-0.686-0.622c-0.008-0.007-0.937-0.828-1.895-0.693
					c-0.512,0.072-0.967,0.42-1.353,1.033l-0.324,0.515l-0.442-0.417c-0.009-0.009-1.034-0.951-2.07-0.796
					c-0.557,0.084-1.047,0.488-1.457,1.201l-0.474,0.824l-3.128-6.16c-0.384-0.804-1.325-1.156-2.142-0.801
					c-0.413,0.179-0.727,0.509-0.886,0.93c-0.159,0.421-0.14,0.877,0.052,1.284l8.456,17.548l-5.043-4.722
					C277.981,398.88,277.68,398.762,277.368,398.762z"/>
			</g>
			<g>
				<path style="fill:#263238;" d="M283.244,395.859c-0.195,0-0.379-0.114-0.46-0.305l-2.3-5.416
					c-0.108-0.254,0.01-0.547,0.264-0.655c0.255-0.108,0.548,0.011,0.655,0.265l2.3,5.416c0.108,0.254-0.01,0.547-0.264,0.655
					C283.375,395.846,283.309,395.859,283.244,395.859z"/>
			</g>
			<g>
				<path style="fill:#263238;" d="M287.25,394.672c-0.195,0-0.38-0.115-0.461-0.306l-2.003-4.748
					c-0.107-0.254,0.012-0.547,0.266-0.655c0.255-0.107,0.547,0.012,0.655,0.266l2.003,4.748c0.107,0.254-0.012,0.547-0.266,0.655
					C287.381,394.659,287.315,394.672,287.25,394.672z"/>
			</g>
			<g>
				<path style="fill:#263238;" d="M291.182,393.633c-0.188,0-0.369-0.107-0.454-0.289l-1.929-4.155
					c-0.116-0.25-0.007-0.547,0.243-0.664c0.25-0.116,0.547-0.008,0.664,0.243l1.929,4.155c0.116,0.25,0.007,0.548-0.243,0.664
					C291.324,393.618,291.253,393.633,291.182,393.633z"/>
			</g>
		</g>
	</g>
	<g>
		
			<rect x="267" y="47.349" transform="matrix(0.7071 -0.7071 0.7071 0.7071 41.8219 209.6659)" style="fill:none;stroke:#263238;stroke-linecap:round;stroke-linejoin:round;stroke-miterlimit:10;" width="14" height="14"/>
		
			<rect x="439.1" y="156.35" transform="matrix(0.7071 -0.7071 0.7071 0.7071 15.1542 363.2844)" style="fill:none;stroke:#263238;stroke-linecap:round;stroke-linejoin:round;stroke-miterlimit:10;" width="14" height="14"/>
		
			<rect x="136.1" y="396.349" transform="matrix(0.7071 -0.7071 0.7071 0.7071 -243.298 219.3256)" style="fill:none;stroke:#263238;stroke-linecap:round;stroke-linejoin:round;stroke-miterlimit:10;" width="14" height="14"/>
		
			<rect x="251.782" y="64.182" transform="matrix(0.7071 -0.7071 0.7071 0.7071 26.7803 200.6534)" style="fill:none;stroke:#263238;stroke-linecap:round;stroke-linejoin:round;stroke-miterlimit:10;" width="7.636" height="7.636"/>
		
			<rect x="246.782" y="327.182" transform="matrix(0.7071 -0.7071 0.7071 0.7071 -160.6531 274.1487)" style="fill:none;stroke:#263238;stroke-linecap:round;stroke-linejoin:round;stroke-miterlimit:10;" width="7.636" height="7.636"/>
		
			<circle style="fill:none;stroke:#263238;stroke-linecap:round;stroke-linejoin:round;stroke-miterlimit:10;" cx="200" cy="375" r="4"/>
		
			<circle style="fill:none;stroke:#263238;stroke-linecap:round;stroke-linejoin:round;stroke-miterlimit:10;" cx="328" cy="331" r="4"/>
		
			<circle style="fill:none;stroke:#263238;stroke-linecap:round;stroke-linejoin:round;stroke-miterlimit:10;" cx="439" cy="89" r="4"/>
		
			<circle style="fill:none;stroke:#263238;stroke-linecap:round;stroke-linejoin:round;stroke-miterlimit:10;" cx="23" cy="101.349" r="4"/>
	</g>
</g>
<g id="Window">
	<g>
		<g>
			<polygon style="fill:#263238;" points="144.335,78.348 135.592,63.565 55.06,58.264 55.06,73.123 55.06,78.473 55.06,325.737 
				350.083,306.315 350.083,90.388 			"/>
			<g>
				<defs>
					<polygon id="XMLID_1_" points="348.421,301.816 57.622,320.19 57.622,80.081 348.421,96.123 					"/>
				</defs>
				<use xlink:href="#XMLID_1_"  style="overflow:visible;fill:#E5E5E5;"/>
				<clipPath id="XMLID_00000165232361669673537660000001574697715268075395_">
					<use xlink:href="#XMLID_1_"  style="overflow:visible;"/>
				</clipPath>
				<polygon style="opacity:0.17;clip-path:url(#XMLID_00000165232361669673537660000001574697715268075395_);" points="
					349.639,303.295 343.845,303.666 343.845,94.102 349.639,94.427 				"/>
				<polygon style="opacity:0.17;clip-path:url(#XMLID_00000165232361669673537660000001574697715268075395_);" points="
					349.639,301.599 343.845,301.965 343.845,220.809 349.639,220.713 				"/>
				
					<polygon style="clip-path:url(#XMLID_00000165232361669673537660000001574697715268075395_);fill:#92E3A9;stroke:#263238;stroke-miterlimit:10;" points="
					348.75,104.547 56.274,89.827 56.274,76.758 348.75,93.36 				"/>
				
					<use xlink:href="#XMLID_1_"  style="overflow:visible;fill:none;stroke:#263238;stroke-linecap:round;stroke-linejoin:round;stroke-miterlimit:10;"/>
			</g>
		</g>
		<polygon style="opacity:0.2;" points="333.996,133.636 288.629,131.918 288.578,131.916 240.813,130.107 240.759,130.105 
			190.401,128.197 190.344,128.195 137.175,126.182 137.115,126.179 80.893,124.05 80.893,142.445 80.893,142.445 80.893,311.034 
			333.895,297.159 333.895,149.72 333.996,149.723 		"/>
		<g>
			<polygon style="fill:#92E3A9;stroke:#263238;stroke-miterlimit:10;" points="157.663,137.747 100.991,136.194 100.991,117.725 
				157.663,119.793 			"/>
			<polygon style="fill:#7A7A7A;" points="141.527,129.962 117.786,129.224 117.786,125.768 141.527,126.547 			"/>
			<polygon style="fill:#92E3A9;stroke:#263238;stroke-miterlimit:10;" points="211.323,139.218 157.723,137.749 157.723,119.795 
				211.323,121.75 			"/>
			<polygon style="fill:#92E3A9;stroke:#263238;stroke-miterlimit:10;" points="262.15,140.611 211.38,139.22 211.38,121.752 
				262.15,123.604 			"/>
			<polygon style="fill:#FFFFFF;stroke:#263238;stroke-linecap:round;stroke-linejoin:round;stroke-miterlimit:10;" points="
				310.363,141.933 310.363,125.363 262.205,123.606 262.205,140.613 100.991,136.194 100.991,305.452 356.058,291.239 
				356.058,143.185 			"/>
			<polygon style="fill:#92E3A9;stroke:#263238;stroke-miterlimit:10;" points="356.159,143.188 310.415,141.934 310.415,125.365 
				356.159,127.034 			"/>
			<g>
				<polygon style="fill:#FFFFFF;stroke:#263238;stroke-linecap:round;stroke-linejoin:round;stroke-miterlimit:10;" points="
					348.946,275.652 219.743,281.696 219.743,170.831 348.946,172.257 				"/>
				<polygon style="fill:#92E3A9;" points="287.132,172.005 255.04,171.658 255.04,184.901 287.132,185.022 				"/>
				<g>
					<g>
						
							<line style="fill:none;stroke:#263238;stroke-linecap:round;stroke-linejoin:round;stroke-miterlimit:10;" x1="329.319" y1="200.488" x2="339.177" y2="200.441"/>
						
							<line style="fill:none;stroke:#263238;stroke-linecap:round;stroke-linejoin:round;stroke-miterlimit:10;" x1="270.698" y1="200.763" x2="323.323" y2="200.516"/>
						
							<line style="fill:none;stroke:#263238;stroke-linecap:round;stroke-linejoin:round;stroke-miterlimit:10;" x1="227.939" y1="200.964" x2="264.947" y2="200.79"/>
						
							<line style="fill:none;stroke:#263238;stroke-linecap:round;stroke-linejoin:round;stroke-miterlimit:10;" x1="297.077" y1="207.592" x2="339.177" y2="207.235"/>
						
							<line style="fill:none;stroke:#263238;stroke-linecap:round;stroke-linejoin:round;stroke-miterlimit:10;" x1="273.243" y1="207.794" x2="290.241" y2="207.65"/>
						
							<line style="fill:none;stroke:#263238;stroke-linecap:round;stroke-linejoin:round;stroke-miterlimit:10;" x1="227.939" y1="208.178" x2="265.588" y2="207.859"/>
						
							<line style="fill:none;stroke:#263238;stroke-linecap:round;stroke-linejoin:round;stroke-miterlimit:10;" x1="252.688" y1="215.089" x2="339.177" y2="214.03"/>
						
							<line style="fill:none;stroke:#263238;stroke-linecap:round;stroke-linejoin:round;stroke-miterlimit:10;" x1="227.939" y1="215.393" x2="244.207" y2="215.193"/>
						
							<line style="fill:none;stroke:#263238;stroke-linecap:round;stroke-linejoin:round;stroke-miterlimit:10;" x1="318.497" y1="221.155" x2="339.177" y2="220.824"/>
						
							<line style="fill:none;stroke:#263238;stroke-linecap:round;stroke-linejoin:round;stroke-miterlimit:10;" x1="277.68" y1="221.81" x2="311.209" y2="221.272"/>
						
							<line style="fill:none;stroke:#263238;stroke-linecap:round;stroke-linejoin:round;stroke-miterlimit:10;" x1="227.939" y1="222.607" x2="270.698" y2="221.922"/>
						
							<line style="fill:none;stroke:#263238;stroke-linecap:round;stroke-linejoin:round;stroke-miterlimit:10;" x1="265.588" y1="229.076" x2="339.177" y2="227.618"/>
						
							<line style="fill:none;stroke:#263238;stroke-linecap:round;stroke-linejoin:round;stroke-miterlimit:10;" x1="227.939" y1="229.822" x2="258.515" y2="229.216"/>
					</g>
					<g>
						
							<line style="fill:none;stroke:#263238;stroke-linecap:round;stroke-linejoin:round;stroke-miterlimit:10;" x1="329.319" y1="234.348" x2="339.177" y2="234.117"/>
						
							<line style="fill:none;stroke:#263238;stroke-linecap:round;stroke-linejoin:round;stroke-miterlimit:10;" x1="270.698" y1="235.721" x2="323.323" y2="234.488"/>
						
							<line style="fill:none;stroke:#263238;stroke-linecap:round;stroke-linejoin:round;stroke-miterlimit:10;" x1="227.939" y1="236.723" x2="264.947" y2="235.856"/>
						
							<line style="fill:none;stroke:#263238;stroke-linecap:round;stroke-linejoin:round;stroke-miterlimit:10;" x1="297.077" y1="242.056" x2="339.177" y2="240.911"/>
						
							<line style="fill:none;stroke:#263238;stroke-linecap:round;stroke-linejoin:round;stroke-miterlimit:10;" x1="273.243" y1="242.705" x2="290.241" y2="242.242"/>
						
							<line style="fill:none;stroke:#263238;stroke-linecap:round;stroke-linejoin:round;stroke-miterlimit:10;" x1="227.939" y1="243.937" x2="265.588" y2="242.913"/>
						
							<line style="fill:none;stroke:#263238;stroke-linecap:round;stroke-linejoin:round;stroke-miterlimit:10;" x1="252.688" y1="250.385" x2="339.177" y2="247.705"/>
						
							<line style="fill:none;stroke:#263238;stroke-linecap:round;stroke-linejoin:round;stroke-miterlimit:10;" x1="227.939" y1="251.152" x2="244.207" y2="250.648"/>
						
							<line style="fill:none;stroke:#263238;stroke-linecap:round;stroke-linejoin:round;stroke-miterlimit:10;" x1="318.497" y1="255.218" x2="339.177" y2="254.499"/>
						
							<line style="fill:none;stroke:#263238;stroke-linecap:round;stroke-linejoin:round;stroke-miterlimit:10;" x1="277.68" y1="256.637" x2="311.209" y2="255.472"/>
						
							<line style="fill:none;stroke:#263238;stroke-linecap:round;stroke-linejoin:round;stroke-miterlimit:10;" x1="227.939" y1="258.366" x2="270.698" y2="256.88"/>
						
							<line style="fill:none;stroke:#263238;stroke-linecap:round;stroke-linejoin:round;stroke-miterlimit:10;" x1="265.588" y1="264.13" x2="339.177" y2="261.294"/>
						
							<line style="fill:none;stroke:#263238;stroke-linecap:round;stroke-linejoin:round;stroke-miterlimit:10;" x1="227.939" y1="265.581" x2="258.515" y2="264.402"/>
					</g>
				</g>
				
					<line style="fill:none;stroke:#263238;stroke-linecap:round;stroke-linejoin:round;stroke-miterlimit:10;" x1="223.557" y1="185.146" x2="347.836" y2="185.592"/>
				
					<line style="fill:none;stroke:#263238;stroke-linecap:round;stroke-linejoin:round;stroke-miterlimit:10;" x1="255.04" y1="171.658" x2="255.04" y2="184.901"/>
				
					<line style="fill:none;stroke:#263238;stroke-linecap:round;stroke-linejoin:round;stroke-miterlimit:10;" x1="287.132" y1="172.005" x2="287.132" y2="185.022"/>
				
					<line style="fill:none;stroke:#263238;stroke-linecap:round;stroke-linejoin:round;stroke-miterlimit:10;" x1="318.147" y1="172.341" x2="318.147" y2="185.139"/>
				<polygon style="fill:#263238;" points="281.914,179.711 261.414,179.575 261.414,176.365 281.914,176.535 				"/>
				<polygon style="fill:#CCCCCC;" points="248.623,179.49 227.376,179.349 227.376,176.081 248.623,176.258 				"/>
				<polygon style="fill:#CCCCCC;" points="313.419,179.919 293.613,179.788 293.613,176.633 313.419,176.798 				"/>
				<polygon style="fill:#CCCCCC;" points="342.956,180.115 323.789,179.988 323.789,176.885 342.956,177.044 				"/>
			</g>
			<g>
				<polygon style="fill:#FFFFFF;stroke:#263238;stroke-linecap:round;stroke-linejoin:round;stroke-miterlimit:10;" points="
					210.463,282.13 111.891,286.742 111.891,150.406 210.463,152.43 				"/>
				<polygon style="fill:none;stroke:#263238;stroke-miterlimit:10;" points="210.463,202.032 185.978,186.263 163.766,235.44 
					141.784,218.089 111.891,286.742 210.463,282.13 				"/>
				<path style="fill:none;stroke:#263238;stroke-miterlimit:10;" d="M149.165,179.492c0-8.178-6.607-14.899-14.818-15.011
					c-8.279-0.114-15.041,6.523-15.041,14.824c0,8.301,6.762,15.023,15.041,15.013C142.558,194.307,149.165,187.67,149.165,179.492z
					"/>
			</g>
			<polygon style="fill:#7A7A7A;" points="195.644,131.645 173.181,130.946 173.181,127.585 195.644,128.322 			"/>
			<polygon style="fill:#7A7A7A;" points="247.213,133.248 225.934,132.586 225.934,129.315 247.213,130.013 			"/>
			<polygon style="fill:#7A7A7A;" points="296.995,134.796 276.829,134.169 276.829,130.985 296.995,131.646 			"/>
			<polygon style="fill:#7A7A7A;" points="343.385,136.238 324.228,135.642 324.228,132.539 343.385,133.168 			"/>
		</g>
	</g>
</g>
<g id="Character">
	<g>
		<ellipse style="fill:#92E3A9;" cx="396.75" cy="458.454" rx="58.25" ry="8.454"/>
		<ellipse style="opacity:0.5;fill:#FFFFFF;" cx="396.75" cy="458.454" rx="58.25" ry="8.454"/>
	</g>
	<g>
		<g>
			<path style="fill:#FFFFFF;stroke:#263238;stroke-linecap:round;stroke-linejoin:round;stroke-miterlimit:10;" d="M367.147,141.03
				c0,0-3.211,11.927-2.523,13.073c0.688,1.147,2.294,0.688,1.376,2.982c-0.917,2.294-2.982,6.651-2.523,8.486
				s2.982,3.211,2.982,3.211s1.147,8.257,2.294,9.863c1.147,1.605,7.34,0.688,7.34,0.688l0.459,6.193l18.349-1.147l-0.688-11.009
				l-0.917-33.945L367.147,141.03z"/>
			<path style="fill:#263238;stroke:#263238;stroke-linecap:round;stroke-linejoin:round;stroke-miterlimit:10;" d="
				M389.166,131.855c-1.133,0.174-9.862,0-16.743,1.147c-6.881,1.147-8.945,1.605-8.716,4.587c0.229,2.982-0.459,4.129,2.064,5.275
				c2.523,1.147,3.44,1.147,3.44,1.147s-0.688,3.211-0.917,5.505c-0.229,2.294,3.899,4.817,3.899,4.817s-0.229,3.44,0.229,4.587
				c0.459,1.147,1.605,1.376,2.294,0.459c0.688-0.917,1.147-5.275,1.835-3.44c0.688,1.835,3.44,15.597,5.275,17.202
				c1.835,1.606,10.092,0.688,12.385,0.229c2.294-0.459,6.652-10.092,8.716-15.826c2.064-5.734,1.147-15.826-1.835-20.413
				C398.111,132.544,392.147,131.397,389.166,131.855z"/>
			<path style="fill:#FFFFFF;stroke:#263238;stroke-linecap:round;stroke-linejoin:round;stroke-miterlimit:10;" d="
				M374.577,155.824c0,0,0.56,3.919,0.56,6.439c0,2.519-1.68,3.919-0.56,5.039c1.12,1.12,1.96,0.56,2.799-1.4
				c0.84-1.96,1.4-5.319,1.12-7.278C378.216,156.663,377.936,152.464,374.577,155.824z"/>
			<path style="fill:#FFFFFF;stroke:#263238;stroke-linecap:round;stroke-linejoin:round;stroke-miterlimit:10;" d="
				M372.193,184.838l-5.046,9.174c0,0,12.615-3.67,19.496-3.67s14.45,1.376,14.45,1.376l-3.211-8.945
				C397.881,182.773,380.45,180.939,372.193,184.838z"/>
			<path style="fill:#FFFFFF;stroke:#263238;stroke-linecap:round;stroke-linejoin:round;stroke-miterlimit:10;" d="M419.671,305.79
				c0,0,0,8.028-0.688,11.468c-0.688,3.44-5.275,8.716-7.11,9.633c-1.835,0.917-4.128,1.147-4.587,0
				c-0.459-1.147-1.147-0.688-0.459-6.651c0.688-5.963,3.211-17.431,3.211-17.431L419.671,305.79z"/>
			<path style="fill:#FFFFFF;stroke:#263238;stroke-linecap:round;stroke-linejoin:round;stroke-miterlimit:10;" d="M421.276,298.45
				l-1.606,7.34c0,0-2.982,0.688-5.963,0.229s-3.67-3.211-3.67-3.211l0.688-6.422L421.276,298.45z"/>
			<path style="fill:#FFFFFF;stroke:#263238;stroke-linecap:round;stroke-linejoin:round;stroke-miterlimit:10;" d="
				M420.148,199.746c0,0,3.211,19.496,5.275,33.945c2.064,14.45,2.505,28.211,2.046,35.092c-0.459,6.881-3.211,28.979-4.128,30.584
				c-0.918,1.605-7.11,2.294-9.633,1.147c-2.523-1.147-3.67-2.523-3.67-6.881c0-4.358,2.294-45.034,2.294-45.034L420.148,199.746z"
				/>
			<path style="fill:#263238;stroke:#263238;stroke-linecap:round;stroke-linejoin:round;stroke-miterlimit:10;" d="
				M370.596,451.569c-0.908,0.007-1.794,0.235-2.596,0.661c-1.364,0.725-7.262,2.342-11.059,3.69
				c-5.935,2.107-10.557,0.97-10.078,2.52c0.479,1.549,9.725,4.665,15.079,4.741c5.354,0.076,7.928-1.263,10.491-1.207
				c2.564,0.056,0.669,1.287,4.927,1.77c4.257,0.483,5.653,0.493,7.14-1.834c1.487-2.327,2.321-2.925,1.852-5.869
				c-0.005-0.03-0.009-0.059-0.014-0.088c-0.438-2.617-2.791-4.481-5.444-4.461L370.596,451.569z"/>
			<path style="fill:#263238;stroke:#263238;stroke-linecap:round;stroke-linejoin:round;stroke-miterlimit:10;" d="
				M403.739,448.733c-0.791-0.023-1.555,0.192-2.239,0.624c-1.164,0.734-6.248,2.277-9.511,3.6c-5.1,2.068-9.164,0.69-8.695,2.374
				c0.469,1.683,5.932,3.967,10.599,4.228c4.667,0.261,5.322-0.156,7.558-0.28c5.039-0.28,1.827,1.504,3.639,2.24
				c1.163,0.472,2.442,0.482,3.919,0.56c5.319,0.28,5.971,0.702,7.188-1.753c1.218-2.455,1.924-3.07,1.417-6.254
				c-0.005-0.032-0.01-0.063-0.015-0.095c-0.469-2.831-2.581-4.916-4.892-4.983L403.739,448.733z"/>
			<path style="fill:#5E5E5E;stroke:#263238;stroke-linecap:round;stroke-linejoin:round;stroke-miterlimit:10;" d="
				M356.138,282.395c0,0,0.917,32.11,0.917,42.89c0,10.78,2.752,59.492,6.422,77.153c3.67,17.661,5.734,42.89,5.734,45.643
				c0,2.752-0.917,3.44,0.917,5.275c1.835,1.835,8.716,5.275,11.239,4.128c2.523-1.147,3.899-5.505,3.899-5.505
				s0-23.854,0.688-39.45c0.688-15.596-0.459-36.009-0.459-36.009s8.945,41.285,11.468,49.542
				c2.523,8.257,4.589,23.236,5.047,26.218c0.459,2.982,2.475,3.079,5.039,3.079c3.079,0,6.886-0.398,8.262-2.691
				c1.376-2.293-1.606-26.376-1.606-36.009c0-9.633-7.569-69.355-6.881-84.034c0.688-14.679,5.046-40.138,3.67-47.707
				c-1.376-7.569-1.376-13.612-1.376-13.612S361.872,265.881,356.138,282.395z"/>
			<g>
				<path style="fill:#FFFFFF;stroke:#263238;stroke-linecap:round;stroke-linejoin:round;stroke-miterlimit:10;" d="
					M368.982,192.865c0,0-10.257,4.358-15.074,6.651c-4.816,2.294-6.881,2.982-6.881,2.982s7.734,73.016,7.734,76.915
					s-0.229,4.129,1.147,5.275c1.376,1.147,8.495,1.675,21.11,1.445c12.615-0.229,28.432-2.822,29.579-2.822
					c1.147,0,3.211-0.688,4.587-2.752c1.376-2.064,8.734-79.897,8.963-80.814c0.229-0.917-18.138-7.569-19.743-8.028
					C398.799,191.26,389.624,185.067,368.982,192.865z"/>
				<path style="fill:none;stroke:#263238;stroke-linecap:round;stroke-linejoin:round;stroke-miterlimit:10;" d="M405.012,239.626
					c-6.56,9.443-16.92,23.171-24.985,28.374"/>
				<path style="fill:none;stroke:#263238;stroke-linecap:round;stroke-linejoin:round;stroke-miterlimit:10;" d="M411.404,230.017
					c0,0-1.194,1.91-3.184,4.896"/>
				<path style="fill:none;stroke:#263238;stroke-linecap:round;stroke-linejoin:round;stroke-miterlimit:10;" d="M392.412,262.633
					c0,0-9.083,8.257-16.515,12.386"/>
			</g>
			<g>
				<path style="fill:#263238;stroke:#263238;stroke-linecap:round;stroke-linejoin:round;stroke-miterlimit:10;" d="
					M405.221,412.301c3.077,3.187,6.147,5.102,8.518,6.24c-0.02-0.673-0.031-1.305-0.031-1.883c0-9.633-7.569-69.355-6.881-84.034
					c0.125-2.671,0.373-5.701,0.684-8.913c-0.302-0.758-0.607-1.39-0.914-1.867c-6.193-9.633-10.092-18.119-10.092-18.119
					l11.917,11.399c0.097-0.865,0.195-1.731,0.293-2.597c-3.178-5.695-7.341-13.52-7.622-15.912l-13.991,7.569
					c0,0-1.835,54.447-1.605,72.336c0,0,1.354,6.249,3.155,14.361C392.978,400.739,400.726,407.646,405.221,412.301z"/>
			</g>
			<path style="fill:none;stroke:#263238;stroke-linecap:round;stroke-linejoin:round;stroke-miterlimit:10;" d="M358.9,285.996
				c0,0,1.366,5.115,2.971,8.326c1.605,3.211,4.129,4.358,4.129,4.358"/>
			<path style="fill:none;stroke:#263238;stroke-linecap:round;stroke-linejoin:round;stroke-miterlimit:10;" d="M373.689,444.619
				c0.479,6.178-0.12,10.572-0.12,10.572"/>
			<path style="fill:none;stroke:#263238;stroke-linecap:round;stroke-linejoin:round;stroke-miterlimit:10;" d="M372.67,431.478
				c0.212,3.033,0.404,5.746,0.572,7.936"/>
			<path style="fill:none;stroke:#263238;stroke-linecap:round;stroke-linejoin:round;stroke-miterlimit:10;" d="M366.733,312.205
				c0.571,22.986,1.936,73.48,3.166,84.729c0.892,8.156,1.713,19.428,2.385,29.015"/>
			<path style="fill:none;stroke:#263238;stroke-linecap:round;stroke-linejoin:round;stroke-miterlimit:10;" d="M365.92,286.352
				c-0.229,0.688,0.539,14.392,0.539,14.392s0.052,2.322,0.147,6.252"/>
			<g>
				<path style="fill:#FFFFFF;stroke:#263238;stroke-linecap:round;stroke-linejoin:round;stroke-miterlimit:10;" d="
					M318.034,220.136c0,0,0.883-1.546,2.208-4.196c1.325-2.65,1.104-5.962,1.104-7.729s1.988-2.429,1.988-4.417
					c0-1.987-2.871-1.767-4.417-0.442c-1.546,1.325-1.987,5.3-1.987,5.3s-2.448-4.14-3.754-7.067
					c-1.173-2.629-2.796-7.155-5.004-7.818c-2.208-0.662-2.097,2.066-1.876,2.729c0.221,0.662,0.666,2.355,1.364,3.752
					c0.512,1.023,1.541,3.987,1.541,3.987s-3.092-2.429-4.196-2.429c-1.104,0-1.987,1.325-1.325,2.429c0,0-2.65,1.104-1.988,2.871
					c0.663,1.767,0.883,2.429,0.883,2.429s-0.662,0.883,0,3.092c0.663,2.208,3.533,5.962,4.638,7.729
					c1.104,1.767,2.429,2.65,2.429,2.65L318.034,220.136z"/>
				<path style="fill:none;stroke:#263238;stroke-linecap:round;stroke-linejoin:round;stroke-miterlimit:10;" d="M303.68,204.237
					c0,0,1.422,2.153,2.445,3.006"/>
				<path style="fill:none;stroke:#263238;stroke-linecap:round;stroke-linejoin:round;stroke-miterlimit:10;" d="M302.576,209.536
					c0,0,0.991,1.629,1.503,1.97"/>
			</g>
			<path style="fill:#FFFFFF;stroke:#263238;stroke-linecap:round;stroke-linejoin:round;stroke-miterlimit:10;" d="
				M311.183,231.627l-3.899-8.486c0,0,1.835-3.211,6.651-4.128c4.817-0.917,5.505,0,5.505,0l2.523,8.716
				C321.963,227.728,313.706,228.416,311.183,231.627z"/>
			<path style="fill:#FFFFFF;stroke:#263238;stroke-linecap:round;stroke-linejoin:round;stroke-miterlimit:10;" d="
				M334.578,247.224c0,0-7.11-12.156-8.945-16.514c-1.835-4.358-4.358-5.505-8.486-5.046c-4.129,0.459-7.798,4.817-7.798,8.028
				c0,3.211,14.679,34.863,15.367,36.698c0.688,1.835,5.734,2.293,9.174,0.229C337.33,268.554,337.789,257.315,334.578,247.224z"/>
			<path style="fill:#FFFFFF;stroke:#263238;stroke-linecap:round;stroke-linejoin:round;stroke-miterlimit:10;" d="
				M347.028,202.498c0,0-9.455,27.888-11.06,32.246c-1.605,4.358-8.958,24.176-11.022,28.076
				c-2.064,3.899-0.229,10.551,5.963,11.468c6.193,0.917,7.11-0.918,10.321-5.505c3.211-4.587,11.135-16.059,11.135-16.059
				S348.862,207.774,347.028,202.498z"/>
		</g>
	</g>
</g>
</svg>
